<svg xmlns="http://www.w3.org/2000/svg" xmlns:xlink="http://www.w3.org/1999/xlink" width="75" zoomAndPan="magnify" viewBox="0 0 56.25 30.000001" height="40" preserveAspectRatio="xMidYMid meet" version="1.0"><defs><g/><clipPath id="03145ada56"><path d="M 0.542969 0 L 54.980469 0 L 54.980469 29.03125 L 0.542969 29.03125 Z M 0.542969 0 " clip-rule="nonzero"/></clipPath></defs><g clip-path="url(#03145ada56)"><path fill="#ffffff" d="M 0.542969 0 L 54.980469 0 L 54.980469 29.03125 L 0.542969 29.03125 Z M 0.542969 0 " fill-opacity="1" fill-rule="nonzero"/><path fill="#ffffff" d="M 0.542969 0 L 54.980469 0 L 54.980469 29.03125 L 0.542969 29.03125 Z M 0.542969 0 " fill-opacity="1" fill-rule="nonzero"/></g><g fill="#000000" fill-opacity="1"><g transform="translate(1.554619, 15.280735)"><g><path d="M 0.375 1.046875 C 0.269531 1.046875 0.164062 1.023438 0.0625 0.984375 C -0.03125 0.941406 -0.113281 0.882812 -0.1875 0.8125 C -0.269531 0.738281 -0.332031 0.644531 -0.375 0.53125 C -0.414062 0.425781 -0.4375 0.304688 -0.4375 0.171875 C -0.425781 -0.0664062 -0.378906 -0.289062 -0.296875 -0.5 C -0.210938 -0.707031 -0.113281 -0.882812 0 -1.03125 C 0.113281 -1.175781 0.226562 -1.289062 0.34375 -1.375 C 0.46875 -1.457031 0.566406 -1.5 0.640625 -1.5 C 0.691406 -1.5 0.738281 -1.476562 0.78125 -1.4375 C 0.820312 -1.40625 0.851562 -1.363281 0.875 -1.3125 C 0.894531 -1.269531 0.90625 -1.21875 0.90625 -1.15625 C 0.914062 -1.09375 0.910156 -1.03125 0.890625 -0.96875 C 0.859375 -1 0.789062 -0.992188 0.6875 -0.953125 C 0.59375 -0.910156 0.492188 -0.835938 0.390625 -0.734375 C 0.296875 -0.628906 0.207031 -0.503906 0.125 -0.359375 C 0.0390625 -0.210938 -0.00390625 -0.046875 -0.015625 0.140625 C -0.0234375 0.253906 -0.0195312 0.351562 0 0.4375 C 0.0195312 0.53125 0.046875 0.601562 0.078125 0.65625 C 0.117188 0.707031 0.160156 0.742188 0.203125 0.765625 C 0.253906 0.796875 0.304688 0.8125 0.359375 0.8125 C 0.492188 0.8125 0.613281 0.757812 0.71875 0.65625 C 0.820312 0.5625 0.914062 0.425781 1 0.25 C 1.09375 0.0820312 1.175781 -0.113281 1.25 -0.34375 C 1.332031 -0.582031 1.410156 -0.847656 1.484375 -1.140625 C 1.503906 -1.234375 1.53125 -1.34375 1.5625 -1.46875 C 1.59375 -1.601562 1.625 -1.742188 1.65625 -1.890625 C 1.695312 -2.046875 1.738281 -2.207031 1.78125 -2.375 C 1.832031 -2.539062 1.875 -2.695312 1.90625 -2.84375 C 1.945312 -3 1.984375 -3.140625 2.015625 -3.265625 C 2.054688 -3.390625 2.085938 -3.492188 2.109375 -3.578125 C 1.992188 -3.578125 1.878906 -3.570312 1.765625 -3.5625 C 1.660156 -3.550781 1.554688 -3.535156 1.453125 -3.515625 C 1.347656 -3.492188 1.257812 -3.46875 1.1875 -3.4375 C 1.1875 -3.4375 1.179688 -3.441406 1.171875 -3.453125 C 1.171875 -3.472656 1.171875 -3.492188 1.171875 -3.515625 C 1.160156 -3.535156 1.15625 -3.554688 1.15625 -3.578125 C 1.15625 -3.609375 1.15625 -3.640625 1.15625 -3.671875 C 1.15625 -3.691406 1.15625 -3.71875 1.15625 -3.75 C 1.164062 -3.78125 1.175781 -3.8125 1.1875 -3.84375 C 1.28125 -3.875 1.382812 -3.894531 1.5 -3.90625 C 1.625 -3.925781 1.738281 -3.9375 1.84375 -3.9375 C 1.96875 -3.945312 2.097656 -3.953125 2.234375 -3.953125 C 2.328125 -3.953125 2.425781 -3.945312 2.53125 -3.9375 C 2.613281 -3.9375 2.707031 -3.925781 2.8125 -3.90625 C 2.925781 -3.894531 3.039062 -3.875 3.15625 -3.84375 C 3.175781 -3.820312 3.191406 -3.796875 3.203125 -3.765625 C 3.203125 -3.753906 3.203125 -3.738281 3.203125 -3.71875 C 3.203125 -3.6875 3.195312 -3.660156 3.1875 -3.640625 C 3.175781 -3.617188 3.160156 -3.59375 3.140625 -3.5625 C 3.128906 -3.539062 3.113281 -3.523438 3.09375 -3.515625 C 3.050781 -3.523438 3 -3.53125 2.9375 -3.53125 C 2.882812 -3.539062 2.832031 -3.550781 2.78125 -3.5625 C 2.707031 -3.5625 2.640625 -3.566406 2.578125 -3.578125 L 2.015625 -1.078125 C 1.992188 -1.015625 1.96875 -0.914062 1.9375 -0.78125 C 1.90625 -0.65625 1.859375 -0.515625 1.796875 -0.359375 C 1.734375 -0.203125 1.65625 -0.0390625 1.5625 0.125 C 1.476562 0.289062 1.378906 0.441406 1.265625 0.578125 C 1.148438 0.710938 1.015625 0.820312 0.859375 0.90625 C 0.710938 1 0.550781 1.046875 0.375 1.046875 Z M 0.375 1.046875 "/></g></g><g transform="translate(4.272797, 15.280735)"><g><path d="M 2.40625 -1.09375 C 2.289062 -0.945312 2.164062 -0.796875 2.03125 -0.640625 C 1.90625 -0.492188 1.765625 -0.363281 1.609375 -0.25 C 1.460938 -0.132812 1.3125 -0.046875 1.15625 0.015625 C 1 0.0859375 0.84375 0.125 0.6875 0.125 C 0.613281 0.125 0.53125 0.101562 0.4375 0.0625 C 0.351562 0.03125 0.269531 -0.0195312 0.1875 -0.09375 C 0.113281 -0.175781 0.0546875 -0.28125 0.015625 -0.40625 C -0.0234375 -0.53125 -0.0351562 -0.679688 -0.015625 -0.859375 C -0.00390625 -0.992188 0.0351562 -1.140625 0.109375 -1.296875 C 0.191406 -1.460938 0.285156 -1.613281 0.390625 -1.75 C 0.503906 -1.882812 0.628906 -1.992188 0.765625 -2.078125 C 0.910156 -2.171875 1.050781 -2.21875 1.1875 -2.21875 C 1.320312 -2.21875 1.421875 -2.179688 1.484375 -2.109375 C 1.546875 -2.046875 1.570312 -1.96875 1.5625 -1.875 C 1.550781 -1.757812 1.519531 -1.65625 1.46875 -1.5625 C 1.414062 -1.46875 1.351562 -1.382812 1.28125 -1.3125 C 1.21875 -1.238281 1.144531 -1.171875 1.0625 -1.109375 C 0.976562 -1.054688 0.90625 -1.003906 0.84375 -0.953125 C 0.757812 -0.898438 0.679688 -0.847656 0.609375 -0.796875 C 0.546875 -0.753906 0.484375 -0.710938 0.421875 -0.671875 C 0.429688 -0.585938 0.445312 -0.515625 0.46875 -0.453125 C 0.5 -0.390625 0.535156 -0.335938 0.578125 -0.296875 C 0.617188 -0.265625 0.664062 -0.238281 0.71875 -0.21875 C 0.78125 -0.207031 0.835938 -0.203125 0.890625 -0.203125 C 1.015625 -0.203125 1.140625 -0.238281 1.265625 -0.3125 C 1.398438 -0.382812 1.53125 -0.472656 1.65625 -0.578125 C 1.78125 -0.691406 1.894531 -0.804688 2 -0.921875 C 2.113281 -1.035156 2.203125 -1.140625 2.265625 -1.234375 C 2.296875 -1.253906 2.320312 -1.265625 2.34375 -1.265625 C 2.375 -1.273438 2.394531 -1.273438 2.40625 -1.265625 C 2.425781 -1.253906 2.4375 -1.234375 2.4375 -1.203125 C 2.4375 -1.171875 2.425781 -1.132812 2.40625 -1.09375 Z M 1.046875 -1.921875 C 1.003906 -1.921875 0.953125 -1.898438 0.890625 -1.859375 C 0.835938 -1.816406 0.78125 -1.753906 0.71875 -1.671875 C 0.664062 -1.585938 0.613281 -1.488281 0.5625 -1.375 C 0.507812 -1.257812 0.472656 -1.128906 0.453125 -0.984375 C 0.492188 -1.015625 0.535156 -1.046875 0.578125 -1.078125 C 0.628906 -1.117188 0.679688 -1.15625 0.734375 -1.1875 C 0.890625 -1.300781 0.992188 -1.398438 1.046875 -1.484375 C 1.109375 -1.578125 1.144531 -1.65625 1.15625 -1.71875 C 1.164062 -1.789062 1.15625 -1.84375 1.125 -1.875 C 1.101562 -1.90625 1.078125 -1.921875 1.046875 -1.921875 Z M 1.046875 -1.921875 "/></g></g><g transform="translate(6.291561, 15.280735)"><g><path d="M 1.578125 0.125 C 1.492188 0.125 1.421875 0.109375 1.359375 0.078125 C 1.304688 0.0546875 1.257812 0.0195312 1.21875 -0.03125 C 1.1875 -0.0820312 1.164062 -0.140625 1.15625 -0.203125 C 1.144531 -0.265625 1.148438 -0.332031 1.171875 -0.40625 C 1.179688 -0.457031 1.195312 -0.523438 1.21875 -0.609375 C 1.238281 -0.691406 1.257812 -0.78125 1.28125 -0.875 C 1.3125 -0.976562 1.335938 -1.078125 1.359375 -1.171875 C 1.390625 -1.265625 1.40625 -1.351562 1.40625 -1.4375 C 1.414062 -1.519531 1.410156 -1.582031 1.390625 -1.625 C 1.378906 -1.675781 1.351562 -1.703125 1.3125 -1.703125 C 1.257812 -1.703125 1.203125 -1.679688 1.140625 -1.640625 C 1.078125 -1.609375 1.015625 -1.5625 0.953125 -1.5 C 0.890625 -1.4375 0.828125 -1.363281 0.765625 -1.28125 C 0.703125 -1.195312 0.644531 -1.113281 0.59375 -1.03125 C 0.5625 -0.90625 0.53125 -0.796875 0.5 -0.703125 C 0.476562 -0.617188 0.457031 -0.539062 0.4375 -0.46875 C 0.425781 -0.394531 0.414062 -0.332031 0.40625 -0.28125 C 0.394531 -0.226562 0.382812 -0.175781 0.375 -0.125 C 0.363281 -0.0820312 0.332031 -0.046875 0.28125 -0.015625 C 0.226562 0.015625 0.171875 0.0390625 0.109375 0.0625 C 0.046875 0.0820312 -0.00390625 0.09375 -0.046875 0.09375 C -0.0859375 0.09375 -0.109375 0.078125 -0.109375 0.046875 C -0.0976562 0.0234375 -0.0820312 -0.0195312 -0.0625 -0.09375 C -0.0507812 -0.164062 -0.03125 -0.253906 0 -0.359375 C 0.0195312 -0.460938 0.046875 -0.566406 0.078125 -0.671875 C 0.109375 -0.785156 0.132812 -0.894531 0.15625 -1 C 0.175781 -1.082031 0.195312 -1.171875 0.21875 -1.265625 C 0.238281 -1.347656 0.257812 -1.445312 0.28125 -1.5625 C 0.3125 -1.675781 0.34375 -1.800781 0.375 -1.9375 C 0.394531 -1.957031 0.421875 -1.972656 0.453125 -1.984375 C 0.484375 -1.992188 0.507812 -2.003906 0.53125 -2.015625 C 0.5625 -2.023438 0.59375 -2.03125 0.625 -2.03125 C 0.65625 -2.03125 0.679688 -2.03125 0.703125 -2.03125 C 0.734375 -2.03125 0.757812 -2.023438 0.78125 -2.015625 C 0.8125 -2.003906 0.835938 -1.988281 0.859375 -1.96875 C 0.847656 -1.945312 0.832031 -1.914062 0.8125 -1.875 C 0.800781 -1.832031 0.789062 -1.785156 0.78125 -1.734375 C 0.757812 -1.671875 0.738281 -1.613281 0.71875 -1.5625 C 0.769531 -1.625 0.820312 -1.6875 0.875 -1.75 C 0.9375 -1.8125 1 -1.867188 1.0625 -1.921875 C 1.132812 -1.972656 1.207031 -2.015625 1.28125 -2.046875 C 1.363281 -2.085938 1.445312 -2.109375 1.53125 -2.109375 C 1.59375 -2.109375 1.648438 -2.085938 1.703125 -2.046875 C 1.765625 -2.003906 1.804688 -1.945312 1.828125 -1.875 C 1.859375 -1.8125 1.875 -1.734375 1.875 -1.640625 C 1.882812 -1.546875 1.875 -1.441406 1.84375 -1.328125 L 1.796875 -1.09375 C 1.773438 -1.019531 1.75 -0.929688 1.71875 -0.828125 C 1.695312 -0.734375 1.664062 -0.625 1.625 -0.5 C 1.601562 -0.425781 1.59375 -0.359375 1.59375 -0.296875 C 1.601562 -0.242188 1.640625 -0.21875 1.703125 -0.21875 C 1.765625 -0.21875 1.84375 -0.253906 1.9375 -0.328125 C 2.039062 -0.410156 2.140625 -0.503906 2.234375 -0.609375 C 2.335938 -0.722656 2.429688 -0.835938 2.515625 -0.953125 C 2.609375 -1.066406 2.675781 -1.160156 2.71875 -1.234375 C 2.75 -1.273438 2.78125 -1.300781 2.8125 -1.3125 C 2.84375 -1.332031 2.863281 -1.335938 2.875 -1.328125 C 2.894531 -1.316406 2.90625 -1.289062 2.90625 -1.25 C 2.90625 -1.21875 2.890625 -1.171875 2.859375 -1.109375 C 2.835938 -1.054688 2.800781 -0.988281 2.75 -0.90625 C 2.695312 -0.832031 2.632812 -0.75 2.5625 -0.65625 C 2.488281 -0.5625 2.410156 -0.46875 2.328125 -0.375 C 2.253906 -0.28125 2.171875 -0.195312 2.078125 -0.125 C 1.992188 -0.0507812 1.90625 0.00390625 1.8125 0.046875 C 1.726562 0.0976562 1.648438 0.125 1.578125 0.125 Z M 1.578125 0.125 "/></g></g><g transform="translate(8.797796, 15.280735)"><g><path d="M 1.578125 0.125 C 1.492188 0.125 1.421875 0.109375 1.359375 0.078125 C 1.304688 0.0546875 1.257812 0.0195312 1.21875 -0.03125 C 1.1875 -0.0820312 1.164062 -0.140625 1.15625 -0.203125 C 1.144531 -0.265625 1.148438 -0.332031 1.171875 -0.40625 C 1.179688 -0.457031 1.195312 -0.523438 1.21875 -0.609375 C 1.238281 -0.691406 1.257812 -0.78125 1.28125 -0.875 C 1.3125 -0.976562 1.335938 -1.078125 1.359375 -1.171875 C 1.390625 -1.265625 1.40625 -1.351562 1.40625 -1.4375 C 1.414062 -1.519531 1.410156 -1.582031 1.390625 -1.625 C 1.378906 -1.675781 1.351562 -1.703125 1.3125 -1.703125 C 1.257812 -1.703125 1.203125 -1.679688 1.140625 -1.640625 C 1.078125 -1.609375 1.015625 -1.5625 0.953125 -1.5 C 0.890625 -1.4375 0.828125 -1.363281 0.765625 -1.28125 C 0.703125 -1.195312 0.644531 -1.113281 0.59375 -1.03125 C 0.5625 -0.90625 0.53125 -0.796875 0.5 -0.703125 C 0.476562 -0.617188 0.457031 -0.539062 0.4375 -0.46875 C 0.425781 -0.394531 0.414062 -0.332031 0.40625 -0.28125 C 0.394531 -0.226562 0.382812 -0.175781 0.375 -0.125 C 0.363281 -0.0820312 0.332031 -0.046875 0.28125 -0.015625 C 0.226562 0.015625 0.171875 0.0390625 0.109375 0.0625 C 0.046875 0.0820312 -0.00390625 0.09375 -0.046875 0.09375 C -0.0859375 0.09375 -0.109375 0.078125 -0.109375 0.046875 C -0.0976562 0.0234375 -0.0820312 -0.0195312 -0.0625 -0.09375 C -0.0507812 -0.164062 -0.03125 -0.253906 0 -0.359375 C 0.0195312 -0.460938 0.046875 -0.566406 0.078125 -0.671875 C 0.109375 -0.785156 0.132812 -0.894531 0.15625 -1 C 0.175781 -1.082031 0.195312 -1.171875 0.21875 -1.265625 C 0.238281 -1.347656 0.257812 -1.445312 0.28125 -1.5625 C 0.3125 -1.675781 0.34375 -1.800781 0.375 -1.9375 C 0.394531 -1.957031 0.421875 -1.972656 0.453125 -1.984375 C 0.484375 -1.992188 0.507812 -2.003906 0.53125 -2.015625 C 0.5625 -2.023438 0.59375 -2.03125 0.625 -2.03125 C 0.65625 -2.03125 0.679688 -2.03125 0.703125 -2.03125 C 0.734375 -2.03125 0.757812 -2.023438 0.78125 -2.015625 C 0.8125 -2.003906 0.835938 -1.988281 0.859375 -1.96875 C 0.847656 -1.945312 0.832031 -1.914062 0.8125 -1.875 C 0.800781 -1.832031 0.789062 -1.785156 0.78125 -1.734375 C 0.757812 -1.671875 0.738281 -1.613281 0.71875 -1.5625 C 0.769531 -1.625 0.820312 -1.6875 0.875 -1.75 C 0.9375 -1.8125 1 -1.867188 1.0625 -1.921875 C 1.132812 -1.972656 1.207031 -2.015625 1.28125 -2.046875 C 1.363281 -2.085938 1.445312 -2.109375 1.53125 -2.109375 C 1.59375 -2.109375 1.648438 -2.085938 1.703125 -2.046875 C 1.765625 -2.003906 1.804688 -1.945312 1.828125 -1.875 C 1.859375 -1.8125 1.875 -1.734375 1.875 -1.640625 C 1.882812 -1.546875 1.875 -1.441406 1.84375 -1.328125 L 1.796875 -1.09375 C 1.773438 -1.019531 1.75 -0.929688 1.71875 -0.828125 C 1.695312 -0.734375 1.664062 -0.625 1.625 -0.5 C 1.601562 -0.425781 1.59375 -0.359375 1.59375 -0.296875 C 1.601562 -0.242188 1.640625 -0.21875 1.703125 -0.21875 C 1.765625 -0.21875 1.84375 -0.253906 1.9375 -0.328125 C 2.039062 -0.410156 2.140625 -0.503906 2.234375 -0.609375 C 2.335938 -0.722656 2.429688 -0.835938 2.515625 -0.953125 C 2.609375 -1.066406 2.675781 -1.160156 2.71875 -1.234375 C 2.75 -1.273438 2.78125 -1.300781 2.8125 -1.3125 C 2.84375 -1.332031 2.863281 -1.335938 2.875 -1.328125 C 2.894531 -1.316406 2.90625 -1.289062 2.90625 -1.25 C 2.90625 -1.21875 2.890625 -1.171875 2.859375 -1.109375 C 2.835938 -1.054688 2.800781 -0.988281 2.75 -0.90625 C 2.695312 -0.832031 2.632812 -0.75 2.5625 -0.65625 C 2.488281 -0.5625 2.410156 -0.46875 2.328125 -0.375 C 2.253906 -0.28125 2.171875 -0.195312 2.078125 -0.125 C 1.992188 -0.0507812 1.90625 0.00390625 1.8125 0.046875 C 1.726562 0.0976562 1.648438 0.125 1.578125 0.125 Z M 1.578125 0.125 "/></g></g><g transform="translate(11.30403, 15.280735)"><g><path d="M 1.171875 -3.125 C 1.160156 -3.082031 1.140625 -3.039062 1.109375 -3 C 1.078125 -2.96875 1.039062 -2.9375 1 -2.90625 C 0.96875 -2.882812 0.929688 -2.867188 0.890625 -2.859375 C 0.847656 -2.859375 0.816406 -2.867188 0.796875 -2.890625 C 0.722656 -2.941406 0.679688 -3 0.671875 -3.0625 C 0.671875 -3.132812 0.6875 -3.195312 0.71875 -3.25 C 0.757812 -3.3125 0.804688 -3.363281 0.859375 -3.40625 C 0.910156 -3.445312 0.957031 -3.472656 1 -3.484375 C 1.03125 -3.484375 1.0625 -3.472656 1.09375 -3.453125 C 1.125 -3.429688 1.144531 -3.398438 1.15625 -3.359375 C 1.164062 -3.328125 1.171875 -3.285156 1.171875 -3.234375 C 1.179688 -3.191406 1.179688 -3.15625 1.171875 -3.125 Z M 0.4375 -1.984375 C 0.445312 -2.003906 0.476562 -2.019531 0.53125 -2.03125 C 0.582031 -2.050781 0.632812 -2.066406 0.6875 -2.078125 C 0.738281 -2.085938 0.785156 -2.09375 0.828125 -2.09375 C 0.878906 -2.09375 0.90625 -2.09375 0.90625 -2.09375 C 0.914062 -2.09375 0.910156 -2.054688 0.890625 -1.984375 C 0.867188 -1.910156 0.835938 -1.828125 0.796875 -1.734375 C 0.765625 -1.640625 0.734375 -1.539062 0.703125 -1.4375 C 0.671875 -1.332031 0.644531 -1.25 0.625 -1.1875 C 0.601562 -1.125 0.582031 -1.050781 0.5625 -0.96875 C 0.539062 -0.894531 0.519531 -0.816406 0.5 -0.734375 C 0.476562 -0.660156 0.460938 -0.585938 0.453125 -0.515625 C 0.441406 -0.453125 0.445312 -0.40625 0.46875 -0.375 C 0.488281 -0.332031 0.507812 -0.300781 0.53125 -0.28125 C 0.550781 -0.269531 0.570312 -0.265625 0.59375 -0.265625 C 0.664062 -0.265625 0.753906 -0.300781 0.859375 -0.375 C 0.972656 -0.457031 1.082031 -0.550781 1.1875 -0.65625 C 1.300781 -0.769531 1.40625 -0.878906 1.5 -0.984375 C 1.59375 -1.097656 1.664062 -1.1875 1.71875 -1.25 C 1.75 -1.289062 1.773438 -1.316406 1.796875 -1.328125 C 1.828125 -1.335938 1.851562 -1.332031 1.875 -1.3125 C 1.894531 -1.300781 1.90625 -1.28125 1.90625 -1.25 C 1.90625 -1.21875 1.894531 -1.179688 1.875 -1.140625 C 1.820312 -1.035156 1.738281 -0.914062 1.625 -0.78125 C 1.519531 -0.644531 1.40625 -0.515625 1.28125 -0.390625 C 1.15625 -0.265625 1.03125 -0.15625 0.90625 -0.0625 C 0.789062 0.0195312 0.695312 0.0625 0.625 0.0625 C 0.5625 0.0625 0.5 0.0507812 0.4375 0.03125 C 0.382812 0.0078125 0.332031 -0.0195312 0.28125 -0.0625 C 0.238281 -0.101562 0.203125 -0.148438 0.171875 -0.203125 C 0.140625 -0.253906 0.117188 -0.3125 0.109375 -0.375 C 0.0976562 -0.46875 0.0976562 -0.585938 0.109375 -0.734375 C 0.117188 -0.890625 0.140625 -1.046875 0.171875 -1.203125 C 0.203125 -1.367188 0.238281 -1.523438 0.28125 -1.671875 C 0.320312 -1.816406 0.375 -1.921875 0.4375 -1.984375 Z M 0.4375 -1.984375 "/></g></g><g transform="translate(12.792935, 15.280735)"><g><path d="M 0.109375 -0.546875 C 0.0664062 -0.585938 0.0351562 -0.625 0.015625 -0.65625 C 0.00390625 -0.695312 -0.00390625 -0.734375 -0.015625 -0.765625 C -0.015625 -0.804688 -0.015625 -0.847656 -0.015625 -0.890625 C 0.00390625 -0.941406 0.0234375 -0.988281 0.046875 -1.03125 C 0.078125 -1.0625 0.113281 -1.097656 0.15625 -1.140625 C 0.195312 -1.179688 0.253906 -1.222656 0.328125 -1.265625 C 0.367188 -1.367188 0.40625 -1.484375 0.4375 -1.609375 C 0.476562 -1.742188 0.515625 -1.859375 0.546875 -1.953125 C 0.578125 -2.078125 0.601562 -2.195312 0.625 -2.3125 C 0.71875 -2.613281 0.765625 -2.859375 0.765625 -3.046875 C 0.765625 -3.234375 0.757812 -3.359375 0.75 -3.421875 C 0.75 -3.453125 0.75 -3.476562 0.75 -3.5 C 0.738281 -3.519531 0.726562 -3.539062 0.71875 -3.5625 C 0.71875 -3.59375 0.710938 -3.617188 0.703125 -3.640625 C 0.742188 -3.671875 0.78125 -3.691406 0.8125 -3.703125 C 0.84375 -3.710938 0.867188 -3.722656 0.890625 -3.734375 C 0.910156 -3.742188 0.929688 -3.75 0.953125 -3.75 C 1.035156 -3.769531 1.113281 -3.78125 1.1875 -3.78125 C 1.257812 -3.78125 1.300781 -3.769531 1.3125 -3.75 C 1.3125 -3.726562 1.3125 -3.691406 1.3125 -3.640625 C 1.320312 -3.597656 1.328125 -3.539062 1.328125 -3.46875 C 1.328125 -3.40625 1.320312 -3.332031 1.3125 -3.25 C 1.300781 -3.164062 1.28125 -3.078125 1.25 -2.984375 C 1.226562 -2.910156 1.195312 -2.800781 1.15625 -2.65625 C 1.113281 -2.53125 1.0625 -2.363281 1 -2.15625 C 0.9375 -1.945312 0.851562 -1.679688 0.75 -1.359375 C 0.851562 -1.398438 0.96875 -1.4375 1.09375 -1.46875 C 1.226562 -1.5 1.359375 -1.523438 1.484375 -1.546875 C 1.617188 -1.566406 1.753906 -1.582031 1.890625 -1.59375 C 2.023438 -1.601562 2.144531 -1.601562 2.25 -1.59375 C 2.269531 -1.59375 2.285156 -1.582031 2.296875 -1.5625 C 2.304688 -1.550781 2.304688 -1.535156 2.296875 -1.515625 C 2.285156 -1.492188 2.265625 -1.472656 2.234375 -1.453125 C 2.210938 -1.429688 2.171875 -1.414062 2.109375 -1.40625 C 2.035156 -1.40625 1.957031 -1.398438 1.875 -1.390625 C 1.789062 -1.378906 1.703125 -1.363281 1.609375 -1.34375 C 1.523438 -1.332031 1.4375 -1.316406 1.34375 -1.296875 C 1.257812 -1.273438 1.175781 -1.25 1.09375 -1.21875 C 1.039062 -1.195312 0.984375 -1.175781 0.921875 -1.15625 C 0.867188 -1.132812 0.816406 -1.109375 0.765625 -1.078125 C 0.710938 -1.054688 0.664062 -1.039062 0.625 -1.03125 L 0.515625 -0.640625 C 0.710938 -0.492188 0.867188 -0.34375 0.984375 -0.1875 C 1.097656 -0.0390625 1.175781 0.09375 1.21875 0.21875 C 1.28125 0.363281 1.316406 0.507812 1.328125 0.65625 C 1.328125 0.8125 1.300781 0.96875 1.25 1.125 C 1.207031 1.28125 1.144531 1.429688 1.0625 1.578125 C 0.988281 1.722656 0.898438 1.851562 0.796875 1.96875 C 0.703125 2.09375 0.597656 2.195312 0.484375 2.28125 C 0.378906 2.375 0.269531 2.441406 0.15625 2.484375 C 0.0390625 2.535156 -0.0664062 2.554688 -0.171875 2.546875 C -0.242188 2.535156 -0.304688 2.507812 -0.359375 2.46875 C -0.410156 2.4375 -0.445312 2.390625 -0.46875 2.328125 C -0.5 2.265625 -0.515625 2.191406 -0.515625 2.109375 C -0.515625 2.035156 -0.507812 1.960938 -0.5 1.890625 C -0.476562 1.816406 -0.445312 1.679688 -0.40625 1.484375 C -0.363281 1.304688 -0.300781 1.054688 -0.21875 0.734375 C -0.132812 0.410156 -0.0234375 -0.015625 0.109375 -0.546875 Z M 0.421875 -0.296875 C 0.367188 -0.117188 0.320312 0.0390625 0.28125 0.1875 C 0.25 0.332031 0.222656 0.460938 0.203125 0.578125 C 0.160156 0.703125 0.132812 0.820312 0.125 0.9375 C 0.09375 1.070312 0.0546875 1.203125 0.015625 1.328125 C -0.015625 1.460938 -0.0351562 1.582031 -0.046875 1.6875 C -0.0664062 1.789062 -0.078125 1.875 -0.078125 1.9375 C -0.078125 2 -0.0546875 2.03125 -0.015625 2.03125 C 0.0859375 2.03125 0.191406 1.988281 0.296875 1.90625 C 0.410156 1.820312 0.515625 1.710938 0.609375 1.578125 C 0.703125 1.441406 0.78125 1.296875 0.84375 1.140625 C 0.90625 0.992188 0.9375 0.851562 0.9375 0.71875 C 0.9375 0.582031 0.910156 0.441406 0.859375 0.296875 C 0.828125 0.222656 0.789062 0.148438 0.75 0.078125 C 0.707031 0.015625 0.660156 -0.046875 0.609375 -0.109375 C 0.554688 -0.179688 0.492188 -0.242188 0.421875 -0.296875 Z M 0.421875 -0.296875 "/></g></g><g transform="translate(14.557367, 15.280735)"><g><path d="M 2.40625 -1.09375 C 2.289062 -0.945312 2.164062 -0.796875 2.03125 -0.640625 C 1.90625 -0.492188 1.765625 -0.363281 1.609375 -0.25 C 1.460938 -0.132812 1.3125 -0.046875 1.15625 0.015625 C 1 0.0859375 0.84375 0.125 0.6875 0.125 C 0.613281 0.125 0.53125 0.101562 0.4375 0.0625 C 0.351562 0.03125 0.269531 -0.0195312 0.1875 -0.09375 C 0.113281 -0.175781 0.0546875 -0.28125 0.015625 -0.40625 C -0.0234375 -0.53125 -0.0351562 -0.679688 -0.015625 -0.859375 C -0.00390625 -0.992188 0.0351562 -1.140625 0.109375 -1.296875 C 0.191406 -1.460938 0.285156 -1.613281 0.390625 -1.75 C 0.503906 -1.882812 0.628906 -1.992188 0.765625 -2.078125 C 0.910156 -2.171875 1.050781 -2.21875 1.1875 -2.21875 C 1.320312 -2.21875 1.421875 -2.179688 1.484375 -2.109375 C 1.546875 -2.046875 1.570312 -1.96875 1.5625 -1.875 C 1.550781 -1.757812 1.519531 -1.65625 1.46875 -1.5625 C 1.414062 -1.46875 1.351562 -1.382812 1.28125 -1.3125 C 1.21875 -1.238281 1.144531 -1.171875 1.0625 -1.109375 C 0.976562 -1.054688 0.90625 -1.003906 0.84375 -0.953125 C 0.757812 -0.898438 0.679688 -0.847656 0.609375 -0.796875 C 0.546875 -0.753906 0.484375 -0.710938 0.421875 -0.671875 C 0.429688 -0.585938 0.445312 -0.515625 0.46875 -0.453125 C 0.5 -0.390625 0.535156 -0.335938 0.578125 -0.296875 C 0.617188 -0.265625 0.664062 -0.238281 0.71875 -0.21875 C 0.78125 -0.207031 0.835938 -0.203125 0.890625 -0.203125 C 1.015625 -0.203125 1.140625 -0.238281 1.265625 -0.3125 C 1.398438 -0.382812 1.53125 -0.472656 1.65625 -0.578125 C 1.78125 -0.691406 1.894531 -0.804688 2 -0.921875 C 2.113281 -1.035156 2.203125 -1.140625 2.265625 -1.234375 C 2.296875 -1.253906 2.320312 -1.265625 2.34375 -1.265625 C 2.375 -1.273438 2.394531 -1.273438 2.40625 -1.265625 C 2.425781 -1.253906 2.4375 -1.234375 2.4375 -1.203125 C 2.4375 -1.171875 2.425781 -1.132812 2.40625 -1.09375 Z M 1.046875 -1.921875 C 1.003906 -1.921875 0.953125 -1.898438 0.890625 -1.859375 C 0.835938 -1.816406 0.78125 -1.753906 0.71875 -1.671875 C 0.664062 -1.585938 0.613281 -1.488281 0.5625 -1.375 C 0.507812 -1.257812 0.472656 -1.128906 0.453125 -0.984375 C 0.492188 -1.015625 0.535156 -1.046875 0.578125 -1.078125 C 0.628906 -1.117188 0.679688 -1.15625 0.734375 -1.1875 C 0.890625 -1.300781 0.992188 -1.398438 1.046875 -1.484375 C 1.109375 -1.578125 1.144531 -1.65625 1.15625 -1.71875 C 1.164062 -1.789062 1.15625 -1.84375 1.125 -1.875 C 1.101562 -1.90625 1.078125 -1.921875 1.046875 -1.921875 Z M 1.046875 -1.921875 "/></g></g><g transform="translate(16.576131, 15.280735)"><g><path d="M -0.203125 -0.03125 C -0.222656 0.0078125 -0.25 0.0351562 -0.28125 0.046875 C -0.3125 0.0546875 -0.335938 0.0546875 -0.359375 0.046875 C -0.378906 0.046875 -0.394531 0.03125 -0.40625 0 C -0.414062 -0.03125 -0.410156 -0.0664062 -0.390625 -0.109375 C -0.378906 -0.128906 -0.351562 -0.175781 -0.3125 -0.25 C -0.28125 -0.320312 -0.238281 -0.410156 -0.1875 -0.515625 C -0.132812 -0.617188 -0.078125 -0.726562 -0.015625 -0.84375 C 0.046875 -0.96875 0.101562 -1.082031 0.15625 -1.1875 C 0.207031 -1.300781 0.253906 -1.398438 0.296875 -1.484375 C 0.347656 -1.578125 0.382812 -1.644531 0.40625 -1.6875 C 0.363281 -1.71875 0.335938 -1.738281 0.328125 -1.75 C 0.316406 -1.769531 0.304688 -1.804688 0.296875 -1.859375 C 0.285156 -1.910156 0.296875 -1.972656 0.328125 -2.046875 C 0.359375 -2.117188 0.394531 -2.1875 0.4375 -2.25 C 0.488281 -2.320312 0.539062 -2.382812 0.59375 -2.4375 C 0.644531 -2.488281 0.695312 -2.515625 0.75 -2.515625 C 0.851562 -2.515625 0.925781 -2.476562 0.96875 -2.40625 C 1.007812 -2.34375 1.03125 -2.28125 1.03125 -2.21875 C 1.039062 -2.175781 1.035156 -2.117188 1.015625 -2.046875 C 1.003906 -1.972656 0.984375 -1.910156 0.953125 -1.859375 C 0.960938 -1.847656 0.972656 -1.835938 0.984375 -1.828125 C 1.003906 -1.816406 1.035156 -1.8125 1.078125 -1.8125 C 1.128906 -1.8125 1.164062 -1.816406 1.1875 -1.828125 C 1.21875 -1.835938 1.253906 -1.84375 1.296875 -1.84375 C 1.359375 -1.84375 1.410156 -1.828125 1.453125 -1.796875 C 1.492188 -1.765625 1.523438 -1.722656 1.546875 -1.671875 C 1.566406 -1.628906 1.582031 -1.582031 1.59375 -1.53125 C 1.613281 -1.488281 1.625 -1.441406 1.625 -1.390625 C 1.632812 -1.304688 1.609375 -1.21875 1.546875 -1.125 C 1.492188 -1.03125 1.425781 -0.925781 1.34375 -0.8125 C 1.300781 -0.738281 1.253906 -0.65625 1.203125 -0.5625 C 1.148438 -0.476562 1.128906 -0.398438 1.140625 -0.328125 C 1.148438 -0.285156 1.160156 -0.25 1.171875 -0.21875 C 1.191406 -0.195312 1.242188 -0.1875 1.328125 -0.1875 C 1.378906 -0.1875 1.441406 -0.207031 1.515625 -0.25 C 1.585938 -0.289062 1.660156 -0.34375 1.734375 -0.40625 C 1.816406 -0.476562 1.894531 -0.554688 1.96875 -0.640625 C 2.039062 -0.722656 2.109375 -0.800781 2.171875 -0.875 C 2.234375 -0.957031 2.285156 -1.03125 2.328125 -1.09375 C 2.378906 -1.164062 2.414062 -1.210938 2.4375 -1.234375 C 2.457031 -1.265625 2.476562 -1.285156 2.5 -1.296875 C 2.53125 -1.304688 2.554688 -1.304688 2.578125 -1.296875 C 2.597656 -1.285156 2.609375 -1.265625 2.609375 -1.234375 C 2.617188 -1.203125 2.609375 -1.160156 2.578125 -1.109375 C 2.554688 -1.066406 2.519531 -1.007812 2.46875 -0.9375 C 2.414062 -0.863281 2.351562 -0.773438 2.28125 -0.671875 C 2.207031 -0.578125 2.125 -0.476562 2.03125 -0.375 C 1.945312 -0.28125 1.859375 -0.191406 1.765625 -0.109375 C 1.671875 -0.0234375 1.570312 0.0390625 1.46875 0.09375 C 1.375 0.144531 1.285156 0.171875 1.203125 0.171875 C 1.109375 0.171875 1.03125 0.148438 0.96875 0.109375 C 0.90625 0.078125 0.851562 0.0390625 0.8125 0 C 0.78125 -0.0507812 0.753906 -0.109375 0.734375 -0.171875 C 0.722656 -0.234375 0.71875 -0.289062 0.71875 -0.34375 C 0.726562 -0.382812 0.738281 -0.429688 0.75 -0.484375 C 0.769531 -0.535156 0.796875 -0.582031 0.828125 -0.625 C 0.859375 -0.675781 0.882812 -0.726562 0.90625 -0.78125 C 0.9375 -0.832031 0.96875 -0.882812 1 -0.9375 C 1.050781 -1.039062 1.097656 -1.128906 1.140625 -1.203125 C 1.179688 -1.273438 1.203125 -1.332031 1.203125 -1.375 C 1.203125 -1.40625 1.191406 -1.429688 1.171875 -1.453125 C 1.160156 -1.484375 1.140625 -1.5 1.109375 -1.5 C 1.085938 -1.5 1.070312 -1.5 1.0625 -1.5 C 1.050781 -1.5 1.039062 -1.5 1.03125 -1.5 C 1.019531 -1.5 1.003906 -1.5 0.984375 -1.5 C 0.972656 -1.5 0.953125 -1.5 0.921875 -1.5 C 0.878906 -1.5 0.84375 -1.503906 0.8125 -1.515625 C 0.78125 -1.523438 0.75 -1.535156 0.71875 -1.546875 C 0.707031 -1.523438 0.675781 -1.472656 0.625 -1.390625 C 0.570312 -1.304688 0.515625 -1.207031 0.453125 -1.09375 C 0.390625 -0.988281 0.320312 -0.875 0.25 -0.75 C 0.175781 -0.632812 0.109375 -0.523438 0.046875 -0.421875 C -0.015625 -0.316406 -0.0664062 -0.226562 -0.109375 -0.15625 C -0.160156 -0.0820312 -0.191406 -0.0390625 -0.203125 -0.03125 Z M -0.203125 -0.03125 "/></g></g><g transform="translate(18.780345, 15.280735)"><g/></g><g transform="translate(20.301042, 15.280735)"><g><path d="M 1.9375 -2.4375 C 1.9375 -2.445312 1.945312 -2.472656 1.96875 -2.515625 C 2 -2.554688 2.03125 -2.609375 2.0625 -2.671875 C 2.09375 -2.742188 2.117188 -2.816406 2.140625 -2.890625 C 2.171875 -2.972656 2.191406 -3.054688 2.203125 -3.140625 C 2.222656 -3.234375 2.222656 -3.320312 2.203125 -3.40625 C 2.191406 -3.5 2.15625 -3.585938 2.09375 -3.671875 C 2.0625 -3.710938 2.007812 -3.734375 1.9375 -3.734375 C 1.875 -3.742188 1.796875 -3.734375 1.703125 -3.703125 C 1.617188 -3.679688 1.53125 -3.644531 1.4375 -3.59375 C 1.34375 -3.539062 1.253906 -3.476562 1.171875 -3.40625 C 1.097656 -3.332031 1.035156 -3.25 0.984375 -3.15625 C 0.929688 -3.070312 0.898438 -2.984375 0.890625 -2.890625 C 0.878906 -2.816406 0.878906 -2.75 0.890625 -2.6875 C 0.910156 -2.625 0.929688 -2.566406 0.953125 -2.515625 C 0.972656 -2.460938 0.992188 -2.410156 1.015625 -2.359375 C 1.035156 -2.316406 1.054688 -2.273438 1.078125 -2.234375 C 1.109375 -2.191406 1.15625 -2.140625 1.21875 -2.078125 C 1.28125 -2.015625 1.34375 -1.945312 1.40625 -1.875 C 1.476562 -1.800781 1.550781 -1.710938 1.625 -1.609375 C 1.695312 -1.515625 1.757812 -1.40625 1.8125 -1.28125 C 1.863281 -1.164062 1.898438 -1.035156 1.921875 -0.890625 C 1.941406 -0.742188 1.941406 -0.578125 1.921875 -0.390625 C 1.878906 -0.128906 1.816406 0.0820312 1.734375 0.25 C 1.648438 0.425781 1.554688 0.566406 1.453125 0.671875 C 1.347656 0.785156 1.242188 0.863281 1.140625 0.90625 C 1.046875 0.957031 0.960938 0.988281 0.890625 1 C 0.835938 1.007812 0.773438 1.019531 0.703125 1.03125 C 0.628906 1.039062 0.550781 1.035156 0.46875 1.015625 C 0.394531 1.003906 0.316406 0.976562 0.234375 0.9375 C 0.148438 0.90625 0.078125 0.851562 0.015625 0.78125 C -0.0546875 0.6875 -0.113281 0.59375 -0.15625 0.5 C -0.195312 0.40625 -0.222656 0.300781 -0.234375 0.1875 C -0.253906 0.0703125 -0.25 -0.046875 -0.21875 -0.171875 C -0.1875 -0.203125 -0.15625 -0.226562 -0.125 -0.25 C -0.09375 -0.28125 -0.0625 -0.300781 -0.03125 -0.3125 C 0.0078125 -0.332031 0.046875 -0.351562 0.078125 -0.375 C 0.128906 -0.382812 0.175781 -0.394531 0.21875 -0.40625 C 0.257812 -0.414062 0.300781 -0.421875 0.34375 -0.421875 C 0.382812 -0.421875 0.425781 -0.414062 0.46875 -0.40625 C 0.414062 -0.34375 0.378906 -0.285156 0.359375 -0.234375 C 0.347656 -0.210938 0.335938 -0.191406 0.328125 -0.171875 C 0.316406 -0.0976562 0.3125 -0.015625 0.3125 0.078125 C 0.320312 0.171875 0.34375 0.257812 0.375 0.34375 C 0.40625 0.425781 0.453125 0.5 0.515625 0.5625 C 0.578125 0.625 0.660156 0.660156 0.765625 0.671875 C 1.023438 0.671875 1.242188 0.46875 1.421875 0.0625 C 1.484375 -0.0625 1.515625 -0.1875 1.515625 -0.3125 C 1.523438 -0.445312 1.507812 -0.570312 1.46875 -0.6875 C 1.4375 -0.8125 1.394531 -0.925781 1.34375 -1.03125 C 1.289062 -1.132812 1.234375 -1.222656 1.171875 -1.296875 C 1.117188 -1.367188 1.050781 -1.445312 0.96875 -1.53125 C 0.894531 -1.625 0.816406 -1.722656 0.734375 -1.828125 C 0.660156 -1.929688 0.59375 -2.039062 0.53125 -2.15625 C 0.46875 -2.28125 0.425781 -2.410156 0.40625 -2.546875 C 0.375 -2.742188 0.390625 -2.925781 0.453125 -3.09375 C 0.523438 -3.257812 0.613281 -3.40625 0.71875 -3.53125 C 0.832031 -3.65625 0.953125 -3.753906 1.078125 -3.828125 C 1.210938 -3.898438 1.332031 -3.945312 1.4375 -3.96875 C 2.007812 -4.082031 2.382812 -3.988281 2.5625 -3.6875 C 2.632812 -3.570312 2.671875 -3.445312 2.671875 -3.3125 C 2.679688 -3.1875 2.675781 -3.066406 2.65625 -2.953125 C 2.632812 -2.847656 2.601562 -2.753906 2.5625 -2.671875 C 2.53125 -2.597656 2.507812 -2.554688 2.5 -2.546875 C 2.476562 -2.523438 2.441406 -2.503906 2.390625 -2.484375 C 2.347656 -2.460938 2.28125 -2.441406 2.1875 -2.421875 C 2.15625 -2.410156 2.125 -2.40625 2.09375 -2.40625 C 2.070312 -2.40625 2.046875 -2.40625 2.015625 -2.40625 C 1.984375 -2.414062 1.957031 -2.425781 1.9375 -2.4375 Z M 1.9375 -2.4375 "/></g></g><g transform="translate(22.876158, 15.280735)"><g><path d="M 1.171875 -3.125 C 1.160156 -3.082031 1.140625 -3.039062 1.109375 -3 C 1.078125 -2.96875 1.039062 -2.9375 1 -2.90625 C 0.96875 -2.882812 0.929688 -2.867188 0.890625 -2.859375 C 0.847656 -2.859375 0.816406 -2.867188 0.796875 -2.890625 C 0.722656 -2.941406 0.679688 -3 0.671875 -3.0625 C 0.671875 -3.132812 0.6875 -3.195312 0.71875 -3.25 C 0.757812 -3.3125 0.804688 -3.363281 0.859375 -3.40625 C 0.910156 -3.445312 0.957031 -3.472656 1 -3.484375 C 1.03125 -3.484375 1.0625 -3.472656 1.09375 -3.453125 C 1.125 -3.429688 1.144531 -3.398438 1.15625 -3.359375 C 1.164062 -3.328125 1.171875 -3.285156 1.171875 -3.234375 C 1.179688 -3.191406 1.179688 -3.15625 1.171875 -3.125 Z M 0.4375 -1.984375 C 0.445312 -2.003906 0.476562 -2.019531 0.53125 -2.03125 C 0.582031 -2.050781 0.632812 -2.066406 0.6875 -2.078125 C 0.738281 -2.085938 0.785156 -2.09375 0.828125 -2.09375 C 0.878906 -2.09375 0.90625 -2.09375 0.90625 -2.09375 C 0.914062 -2.09375 0.910156 -2.054688 0.890625 -1.984375 C 0.867188 -1.910156 0.835938 -1.828125 0.796875 -1.734375 C 0.765625 -1.640625 0.734375 -1.539062 0.703125 -1.4375 C 0.671875 -1.332031 0.644531 -1.25 0.625 -1.1875 C 0.601562 -1.125 0.582031 -1.050781 0.5625 -0.96875 C 0.539062 -0.894531 0.519531 -0.816406 0.5 -0.734375 C 0.476562 -0.660156 0.460938 -0.585938 0.453125 -0.515625 C 0.441406 -0.453125 0.445312 -0.40625 0.46875 -0.375 C 0.488281 -0.332031 0.507812 -0.300781 0.53125 -0.28125 C 0.550781 -0.269531 0.570312 -0.265625 0.59375 -0.265625 C 0.664062 -0.265625 0.753906 -0.300781 0.859375 -0.375 C 0.972656 -0.457031 1.082031 -0.550781 1.1875 -0.65625 C 1.300781 -0.769531 1.40625 -0.878906 1.5 -0.984375 C 1.59375 -1.097656 1.664062 -1.1875 1.71875 -1.25 C 1.75 -1.289062 1.773438 -1.316406 1.796875 -1.328125 C 1.828125 -1.335938 1.851562 -1.332031 1.875 -1.3125 C 1.894531 -1.300781 1.90625 -1.28125 1.90625 -1.25 C 1.90625 -1.21875 1.894531 -1.179688 1.875 -1.140625 C 1.820312 -1.035156 1.738281 -0.914062 1.625 -0.78125 C 1.519531 -0.644531 1.40625 -0.515625 1.28125 -0.390625 C 1.15625 -0.265625 1.03125 -0.15625 0.90625 -0.0625 C 0.789062 0.0195312 0.695312 0.0625 0.625 0.0625 C 0.5625 0.0625 0.5 0.0507812 0.4375 0.03125 C 0.382812 0.0078125 0.332031 -0.0195312 0.28125 -0.0625 C 0.238281 -0.101562 0.203125 -0.148438 0.171875 -0.203125 C 0.140625 -0.253906 0.117188 -0.3125 0.109375 -0.375 C 0.0976562 -0.46875 0.0976562 -0.585938 0.109375 -0.734375 C 0.117188 -0.890625 0.140625 -1.046875 0.171875 -1.203125 C 0.203125 -1.367188 0.238281 -1.523438 0.28125 -1.671875 C 0.320312 -1.816406 0.375 -1.921875 0.4375 -1.984375 Z M 0.4375 -1.984375 "/></g></g><g transform="translate(24.365063, 15.280735)"><g><path d="M 2.46875 -0.25 C 2.46875 -0.320312 2.472656 -0.40625 2.484375 -0.5 C 2.503906 -0.59375 2.523438 -0.6875 2.546875 -0.78125 C 2.578125 -0.882812 2.601562 -0.984375 2.625 -1.078125 C 2.644531 -1.179688 2.664062 -1.269531 2.6875 -1.34375 C 2.707031 -1.4375 2.703125 -1.503906 2.671875 -1.546875 C 2.648438 -1.597656 2.613281 -1.625 2.5625 -1.625 C 2.53125 -1.625 2.472656 -1.597656 2.390625 -1.546875 C 2.304688 -1.503906 2.210938 -1.421875 2.109375 -1.296875 C 2.015625 -1.171875 1.921875 -1.003906 1.828125 -0.796875 C 1.734375 -0.597656 1.660156 -0.335938 1.609375 -0.015625 C 1.546875 0.015625 1.484375 0.0351562 1.421875 0.046875 C 1.390625 0.0546875 1.363281 0.0625 1.34375 0.0625 C 1.269531 0.0703125 1.222656 0.0625 1.203125 0.03125 C 1.179688 0.0078125 1.1875 -0.0507812 1.21875 -0.15625 C 1.226562 -0.207031 1.25 -0.285156 1.28125 -0.390625 C 1.320312 -0.503906 1.359375 -0.625 1.390625 -0.75 C 1.429688 -0.882812 1.460938 -1.015625 1.484375 -1.140625 C 1.515625 -1.265625 1.53125 -1.378906 1.53125 -1.484375 C 1.53125 -1.546875 1.519531 -1.585938 1.5 -1.609375 C 1.476562 -1.640625 1.441406 -1.65625 1.390625 -1.65625 C 1.359375 -1.65625 1.304688 -1.632812 1.234375 -1.59375 C 1.160156 -1.5625 1.078125 -1.492188 0.984375 -1.390625 C 0.898438 -1.285156 0.8125 -1.140625 0.71875 -0.953125 C 0.625 -0.773438 0.546875 -0.546875 0.484375 -0.265625 C 0.472656 -0.242188 0.46875 -0.21875 0.46875 -0.1875 C 0.457031 -0.15625 0.445312 -0.125 0.4375 -0.09375 C 0.4375 -0.0703125 0.4375 -0.0507812 0.4375 -0.03125 L 0.171875 0.09375 C 0.148438 0.09375 0.125 0.09375 0.09375 0.09375 C 0.0703125 0.101562 0.0507812 0.101562 0.03125 0.09375 C 0.0078125 0.0820312 -0.00390625 0.0546875 -0.015625 0.015625 C -0.0234375 -0.0234375 -0.0234375 -0.0820312 -0.015625 -0.15625 L 0.328125 -1.546875 C 0.335938 -1.585938 0.34375 -1.628906 0.34375 -1.671875 C 0.351562 -1.710938 0.359375 -1.75 0.359375 -1.78125 C 0.359375 -1.820312 0.359375 -1.851562 0.359375 -1.875 C 0.410156 -1.90625 0.457031 -1.925781 0.5 -1.9375 C 0.550781 -1.957031 0.59375 -1.96875 0.625 -1.96875 C 0.65625 -1.976562 0.6875 -1.984375 0.71875 -1.984375 C 0.832031 -1.984375 0.867188 -1.890625 0.828125 -1.703125 C 0.816406 -1.640625 0.796875 -1.554688 0.765625 -1.453125 C 0.828125 -1.535156 0.894531 -1.613281 0.96875 -1.6875 C 1.050781 -1.769531 1.128906 -1.835938 1.203125 -1.890625 C 1.285156 -1.953125 1.363281 -2 1.4375 -2.03125 C 1.519531 -2.070312 1.597656 -2.09375 1.671875 -2.09375 C 1.734375 -2.09375 1.785156 -2.070312 1.828125 -2.03125 C 1.867188 -2 1.898438 -1.953125 1.921875 -1.890625 C 1.941406 -1.835938 1.953125 -1.769531 1.953125 -1.6875 C 1.960938 -1.613281 1.960938 -1.535156 1.953125 -1.453125 C 2.003906 -1.523438 2.066406 -1.597656 2.140625 -1.671875 C 2.210938 -1.742188 2.285156 -1.8125 2.359375 -1.875 C 2.429688 -1.9375 2.507812 -1.984375 2.59375 -2.015625 C 2.675781 -2.054688 2.757812 -2.078125 2.84375 -2.078125 C 2.9375 -2.078125 3.007812 -2.046875 3.0625 -1.984375 C 3.113281 -1.929688 3.144531 -1.859375 3.15625 -1.765625 C 3.175781 -1.679688 3.179688 -1.585938 3.171875 -1.484375 C 3.171875 -1.390625 3.160156 -1.296875 3.140625 -1.203125 L 2.953125 -0.484375 C 2.910156 -0.304688 2.945312 -0.21875 3.0625 -0.21875 C 3.15625 -0.21875 3.253906 -0.257812 3.359375 -0.34375 C 3.460938 -0.425781 3.5625 -0.523438 3.65625 -0.640625 C 3.757812 -0.765625 3.851562 -0.882812 3.9375 -1 C 4.03125 -1.125 4.109375 -1.222656 4.171875 -1.296875 C 4.191406 -1.328125 4.210938 -1.34375 4.234375 -1.34375 C 4.253906 -1.34375 4.273438 -1.335938 4.296875 -1.328125 C 4.316406 -1.316406 4.328125 -1.296875 4.328125 -1.265625 C 4.328125 -1.242188 4.316406 -1.210938 4.296875 -1.171875 C 4.222656 -1.046875 4.132812 -0.90625 4.03125 -0.75 C 3.925781 -0.601562 3.8125 -0.460938 3.6875 -0.328125 C 3.570312 -0.203125 3.445312 -0.09375 3.3125 0 C 3.175781 0.0820312 3.03125 0.125 2.875 0.125 C 2.832031 0.125 2.785156 0.117188 2.734375 0.109375 C 2.679688 0.0976562 2.632812 0.078125 2.59375 0.046875 C 2.5625 0.0234375 2.53125 -0.00390625 2.5 -0.046875 C 2.476562 -0.0976562 2.46875 -0.164062 2.46875 -0.25 Z M 2.46875 -0.25 "/></g></g><g transform="translate(28.259529, 15.280735)"><g><path d="M 2.46875 -0.25 C 2.46875 -0.320312 2.472656 -0.40625 2.484375 -0.5 C 2.503906 -0.59375 2.523438 -0.6875 2.546875 -0.78125 C 2.578125 -0.882812 2.601562 -0.984375 2.625 -1.078125 C 2.644531 -1.179688 2.664062 -1.269531 2.6875 -1.34375 C 2.707031 -1.4375 2.703125 -1.503906 2.671875 -1.546875 C 2.648438 -1.597656 2.613281 -1.625 2.5625 -1.625 C 2.53125 -1.625 2.472656 -1.597656 2.390625 -1.546875 C 2.304688 -1.503906 2.210938 -1.421875 2.109375 -1.296875 C 2.015625 -1.171875 1.921875 -1.003906 1.828125 -0.796875 C 1.734375 -0.597656 1.660156 -0.335938 1.609375 -0.015625 C 1.546875 0.015625 1.484375 0.0351562 1.421875 0.046875 C 1.390625 0.0546875 1.363281 0.0625 1.34375 0.0625 C 1.269531 0.0703125 1.222656 0.0625 1.203125 0.03125 C 1.179688 0.0078125 1.1875 -0.0507812 1.21875 -0.15625 C 1.226562 -0.207031 1.25 -0.285156 1.28125 -0.390625 C 1.320312 -0.503906 1.359375 -0.625 1.390625 -0.75 C 1.429688 -0.882812 1.460938 -1.015625 1.484375 -1.140625 C 1.515625 -1.265625 1.53125 -1.378906 1.53125 -1.484375 C 1.53125 -1.546875 1.519531 -1.585938 1.5 -1.609375 C 1.476562 -1.640625 1.441406 -1.65625 1.390625 -1.65625 C 1.359375 -1.65625 1.304688 -1.632812 1.234375 -1.59375 C 1.160156 -1.5625 1.078125 -1.492188 0.984375 -1.390625 C 0.898438 -1.285156 0.8125 -1.140625 0.71875 -0.953125 C 0.625 -0.773438 0.546875 -0.546875 0.484375 -0.265625 C 0.472656 -0.242188 0.46875 -0.21875 0.46875 -0.1875 C 0.457031 -0.15625 0.445312 -0.125 0.4375 -0.09375 C 0.4375 -0.0703125 0.4375 -0.0507812 0.4375 -0.03125 L 0.171875 0.09375 C 0.148438 0.09375 0.125 0.09375 0.09375 0.09375 C 0.0703125 0.101562 0.0507812 0.101562 0.03125 0.09375 C 0.0078125 0.0820312 -0.00390625 0.0546875 -0.015625 0.015625 C -0.0234375 -0.0234375 -0.0234375 -0.0820312 -0.015625 -0.15625 L 0.328125 -1.546875 C 0.335938 -1.585938 0.34375 -1.628906 0.34375 -1.671875 C 0.351562 -1.710938 0.359375 -1.75 0.359375 -1.78125 C 0.359375 -1.820312 0.359375 -1.851562 0.359375 -1.875 C 0.410156 -1.90625 0.457031 -1.925781 0.5 -1.9375 C 0.550781 -1.957031 0.59375 -1.96875 0.625 -1.96875 C 0.65625 -1.976562 0.6875 -1.984375 0.71875 -1.984375 C 0.832031 -1.984375 0.867188 -1.890625 0.828125 -1.703125 C 0.816406 -1.640625 0.796875 -1.554688 0.765625 -1.453125 C 0.828125 -1.535156 0.894531 -1.613281 0.96875 -1.6875 C 1.050781 -1.769531 1.128906 -1.835938 1.203125 -1.890625 C 1.285156 -1.953125 1.363281 -2 1.4375 -2.03125 C 1.519531 -2.070312 1.597656 -2.09375 1.671875 -2.09375 C 1.734375 -2.09375 1.785156 -2.070312 1.828125 -2.03125 C 1.867188 -2 1.898438 -1.953125 1.921875 -1.890625 C 1.941406 -1.835938 1.953125 -1.769531 1.953125 -1.6875 C 1.960938 -1.613281 1.960938 -1.535156 1.953125 -1.453125 C 2.003906 -1.523438 2.066406 -1.597656 2.140625 -1.671875 C 2.210938 -1.742188 2.285156 -1.8125 2.359375 -1.875 C 2.429688 -1.9375 2.507812 -1.984375 2.59375 -2.015625 C 2.675781 -2.054688 2.757812 -2.078125 2.84375 -2.078125 C 2.9375 -2.078125 3.007812 -2.046875 3.0625 -1.984375 C 3.113281 -1.929688 3.144531 -1.859375 3.15625 -1.765625 C 3.175781 -1.679688 3.179688 -1.585938 3.171875 -1.484375 C 3.171875 -1.390625 3.160156 -1.296875 3.140625 -1.203125 L 2.953125 -0.484375 C 2.910156 -0.304688 2.945312 -0.21875 3.0625 -0.21875 C 3.15625 -0.21875 3.253906 -0.257812 3.359375 -0.34375 C 3.460938 -0.425781 3.5625 -0.523438 3.65625 -0.640625 C 3.757812 -0.765625 3.851562 -0.882812 3.9375 -1 C 4.03125 -1.125 4.109375 -1.222656 4.171875 -1.296875 C 4.191406 -1.328125 4.210938 -1.34375 4.234375 -1.34375 C 4.253906 -1.34375 4.273438 -1.335938 4.296875 -1.328125 C 4.316406 -1.316406 4.328125 -1.296875 4.328125 -1.265625 C 4.328125 -1.242188 4.316406 -1.210938 4.296875 -1.171875 C 4.222656 -1.046875 4.132812 -0.90625 4.03125 -0.75 C 3.925781 -0.601562 3.8125 -0.460938 3.6875 -0.328125 C 3.570312 -0.203125 3.445312 -0.09375 3.3125 0 C 3.175781 0.0820312 3.03125 0.125 2.875 0.125 C 2.832031 0.125 2.785156 0.117188 2.734375 0.109375 C 2.679688 0.0976562 2.632812 0.078125 2.59375 0.046875 C 2.5625 0.0234375 2.53125 -0.00390625 2.5 -0.046875 C 2.476562 -0.0976562 2.46875 -0.164062 2.46875 -0.25 Z M 2.46875 -0.25 "/></g></g><g transform="translate(32.153995, 15.280735)"><g><path d="M 1.5625 -0.84375 C 1.53125 -0.707031 1.484375 -0.582031 1.421875 -0.46875 C 1.359375 -0.351562 1.285156 -0.25 1.203125 -0.15625 C 1.117188 -0.0703125 1.023438 -0.0078125 0.921875 0.03125 C 0.816406 0.0820312 0.707031 0.109375 0.59375 0.109375 C 0.445312 0.109375 0.332031 0.078125 0.25 0.015625 C 0.164062 -0.046875 0.101562 -0.125 0.0625 -0.21875 C 0.0195312 -0.3125 -0.00390625 -0.410156 -0.015625 -0.515625 C -0.0234375 -0.628906 -0.03125 -0.734375 -0.03125 -0.828125 C -0.03125 -0.890625 -0.0195312 -0.960938 0 -1.046875 C 0.0078125 -1.128906 0.03125 -1.210938 0.0625 -1.296875 C 0.09375 -1.378906 0.128906 -1.460938 0.171875 -1.546875 C 0.210938 -1.628906 0.265625 -1.707031 0.328125 -1.78125 C 0.347656 -1.84375 0.378906 -1.894531 0.421875 -1.9375 C 0.472656 -1.988281 0.523438 -2.03125 0.578125 -2.0625 C 0.640625 -2.09375 0.703125 -2.113281 0.765625 -2.125 C 0.835938 -2.144531 0.90625 -2.15625 0.96875 -2.15625 C 0.976562 -2.15625 0.984375 -2.148438 0.984375 -2.140625 C 0.992188 -2.140625 1.003906 -2.140625 1.015625 -2.140625 C 1.066406 -2.128906 1.125 -2.109375 1.1875 -2.078125 C 1.257812 -2.046875 1.328125 -2 1.390625 -1.9375 C 1.460938 -1.875 1.519531 -1.789062 1.5625 -1.6875 C 1.601562 -1.59375 1.625 -1.476562 1.625 -1.34375 C 1.625 -1.3125 1.625 -1.273438 1.625 -1.234375 C 1.625 -1.203125 1.617188 -1.171875 1.609375 -1.140625 C 1.691406 -1.171875 1.773438 -1.207031 1.859375 -1.25 C 1.953125 -1.300781 2.039062 -1.351562 2.125 -1.40625 C 2.207031 -1.457031 2.285156 -1.507812 2.359375 -1.5625 C 2.429688 -1.613281 2.488281 -1.660156 2.53125 -1.703125 C 2.5625 -1.734375 2.585938 -1.75 2.609375 -1.75 C 2.640625 -1.757812 2.660156 -1.753906 2.671875 -1.734375 C 2.679688 -1.710938 2.679688 -1.6875 2.671875 -1.65625 C 2.660156 -1.625 2.640625 -1.585938 2.609375 -1.546875 C 2.597656 -1.523438 2.554688 -1.484375 2.484375 -1.421875 C 2.410156 -1.359375 2.320312 -1.289062 2.21875 -1.21875 C 2.125 -1.144531 2.015625 -1.070312 1.890625 -1 C 1.773438 -0.925781 1.664062 -0.875 1.5625 -0.84375 Z M 0.671875 -1.640625 C 0.660156 -1.609375 0.65625 -1.578125 0.65625 -1.546875 C 0.65625 -1.492188 0.65625 -1.4375 0.65625 -1.375 C 0.664062 -1.3125 0.6875 -1.253906 0.71875 -1.203125 C 0.75 -1.148438 0.796875 -1.109375 0.859375 -1.078125 C 0.921875 -1.046875 1.003906 -1.03125 1.109375 -1.03125 C 1.128906 -1.03125 1.144531 -1.03125 1.15625 -1.03125 C 1.175781 -1.03125 1.195312 -1.03125 1.21875 -1.03125 C 1.226562 -1.082031 1.238281 -1.125 1.25 -1.15625 C 1.257812 -1.195312 1.265625 -1.234375 1.265625 -1.265625 C 1.265625 -1.328125 1.257812 -1.394531 1.25 -1.46875 C 1.25 -1.539062 1.238281 -1.601562 1.21875 -1.65625 C 1.195312 -1.71875 1.171875 -1.765625 1.140625 -1.796875 C 1.109375 -1.835938 1.070312 -1.859375 1.03125 -1.859375 C 0.96875 -1.859375 0.90625 -1.835938 0.84375 -1.796875 C 0.78125 -1.765625 0.722656 -1.710938 0.671875 -1.640625 Z M 0.328125 -0.71875 C 0.328125 -0.65625 0.332031 -0.59375 0.34375 -0.53125 C 0.351562 -0.46875 0.367188 -0.410156 0.390625 -0.359375 C 0.410156 -0.316406 0.4375 -0.28125 0.46875 -0.25 C 0.507812 -0.21875 0.554688 -0.203125 0.609375 -0.203125 C 0.671875 -0.203125 0.726562 -0.21875 0.78125 -0.25 C 0.832031 -0.28125 0.878906 -0.316406 0.921875 -0.359375 C 0.960938 -0.410156 1 -0.46875 1.03125 -0.53125 C 1.070312 -0.59375 1.101562 -0.65625 1.125 -0.71875 C 1.101562 -0.71875 1.078125 -0.710938 1.046875 -0.703125 C 1.023438 -0.703125 1.003906 -0.703125 0.984375 -0.703125 C 0.847656 -0.703125 0.726562 -0.742188 0.625 -0.828125 C 0.53125 -0.910156 0.457031 -1.015625 0.40625 -1.140625 C 0.382812 -1.054688 0.363281 -0.976562 0.34375 -0.90625 C 0.332031 -0.84375 0.328125 -0.78125 0.328125 -0.71875 Z M 0.328125 -0.71875 "/></g></g><g transform="translate(34.289328, 15.280735)"><g><path d="M 1.578125 0.125 C 1.492188 0.125 1.421875 0.109375 1.359375 0.078125 C 1.304688 0.0546875 1.257812 0.0195312 1.21875 -0.03125 C 1.1875 -0.0820312 1.164062 -0.140625 1.15625 -0.203125 C 1.144531 -0.265625 1.148438 -0.332031 1.171875 -0.40625 C 1.179688 -0.457031 1.195312 -0.523438 1.21875 -0.609375 C 1.238281 -0.691406 1.257812 -0.78125 1.28125 -0.875 C 1.3125 -0.976562 1.335938 -1.078125 1.359375 -1.171875 C 1.390625 -1.265625 1.40625 -1.351562 1.40625 -1.4375 C 1.414062 -1.519531 1.410156 -1.582031 1.390625 -1.625 C 1.378906 -1.675781 1.351562 -1.703125 1.3125 -1.703125 C 1.257812 -1.703125 1.203125 -1.679688 1.140625 -1.640625 C 1.078125 -1.609375 1.015625 -1.5625 0.953125 -1.5 C 0.890625 -1.4375 0.828125 -1.363281 0.765625 -1.28125 C 0.703125 -1.195312 0.644531 -1.113281 0.59375 -1.03125 C 0.5625 -0.90625 0.53125 -0.796875 0.5 -0.703125 C 0.476562 -0.617188 0.457031 -0.539062 0.4375 -0.46875 C 0.425781 -0.394531 0.414062 -0.332031 0.40625 -0.28125 C 0.394531 -0.226562 0.382812 -0.175781 0.375 -0.125 C 0.363281 -0.0820312 0.332031 -0.046875 0.28125 -0.015625 C 0.226562 0.015625 0.171875 0.0390625 0.109375 0.0625 C 0.046875 0.0820312 -0.00390625 0.09375 -0.046875 0.09375 C -0.0859375 0.09375 -0.109375 0.078125 -0.109375 0.046875 C -0.0976562 0.0234375 -0.0820312 -0.0195312 -0.0625 -0.09375 C -0.0507812 -0.164062 -0.03125 -0.253906 0 -0.359375 C 0.0195312 -0.460938 0.046875 -0.566406 0.078125 -0.671875 C 0.109375 -0.785156 0.132812 -0.894531 0.15625 -1 C 0.175781 -1.082031 0.195312 -1.171875 0.21875 -1.265625 C 0.238281 -1.347656 0.257812 -1.445312 0.28125 -1.5625 C 0.3125 -1.675781 0.34375 -1.800781 0.375 -1.9375 C 0.394531 -1.957031 0.421875 -1.972656 0.453125 -1.984375 C 0.484375 -1.992188 0.507812 -2.003906 0.53125 -2.015625 C 0.5625 -2.023438 0.59375 -2.03125 0.625 -2.03125 C 0.65625 -2.03125 0.679688 -2.03125 0.703125 -2.03125 C 0.734375 -2.03125 0.757812 -2.023438 0.78125 -2.015625 C 0.8125 -2.003906 0.835938 -1.988281 0.859375 -1.96875 C 0.847656 -1.945312 0.832031 -1.914062 0.8125 -1.875 C 0.800781 -1.832031 0.789062 -1.785156 0.78125 -1.734375 C 0.757812 -1.671875 0.738281 -1.613281 0.71875 -1.5625 C 0.769531 -1.625 0.820312 -1.6875 0.875 -1.75 C 0.9375 -1.8125 1 -1.867188 1.0625 -1.921875 C 1.132812 -1.972656 1.207031 -2.015625 1.28125 -2.046875 C 1.363281 -2.085938 1.445312 -2.109375 1.53125 -2.109375 C 1.59375 -2.109375 1.648438 -2.085938 1.703125 -2.046875 C 1.765625 -2.003906 1.804688 -1.945312 1.828125 -1.875 C 1.859375 -1.8125 1.875 -1.734375 1.875 -1.640625 C 1.882812 -1.546875 1.875 -1.441406 1.84375 -1.328125 L 1.796875 -1.09375 C 1.773438 -1.019531 1.75 -0.929688 1.71875 -0.828125 C 1.695312 -0.734375 1.664062 -0.625 1.625 -0.5 C 1.601562 -0.425781 1.59375 -0.359375 1.59375 -0.296875 C 1.601562 -0.242188 1.640625 -0.21875 1.703125 -0.21875 C 1.765625 -0.21875 1.84375 -0.253906 1.9375 -0.328125 C 2.039062 -0.410156 2.140625 -0.503906 2.234375 -0.609375 C 2.335938 -0.722656 2.429688 -0.835938 2.515625 -0.953125 C 2.609375 -1.066406 2.675781 -1.160156 2.71875 -1.234375 C 2.75 -1.273438 2.78125 -1.300781 2.8125 -1.3125 C 2.84375 -1.332031 2.863281 -1.335938 2.875 -1.328125 C 2.894531 -1.316406 2.90625 -1.289062 2.90625 -1.25 C 2.90625 -1.21875 2.890625 -1.171875 2.859375 -1.109375 C 2.835938 -1.054688 2.800781 -0.988281 2.75 -0.90625 C 2.695312 -0.832031 2.632812 -0.75 2.5625 -0.65625 C 2.488281 -0.5625 2.410156 -0.46875 2.328125 -0.375 C 2.253906 -0.28125 2.171875 -0.195312 2.078125 -0.125 C 1.992188 -0.0507812 1.90625 0.00390625 1.8125 0.046875 C 1.726562 0.0976562 1.648438 0.125 1.578125 0.125 Z M 1.578125 0.125 "/></g></g><g transform="translate(36.795562, 15.280735)"><g><path d="M 0.75 -0.1875 C 0.769531 -0.164062 0.796875 -0.15625 0.828125 -0.15625 C 0.859375 -0.15625 0.890625 -0.160156 0.921875 -0.171875 C 0.960938 -0.191406 0.992188 -0.210938 1.015625 -0.234375 C 1.046875 -0.265625 1.070312 -0.296875 1.09375 -0.328125 C 1.101562 -0.367188 1.097656 -0.425781 1.078125 -0.5 C 1.066406 -0.570312 1.046875 -0.648438 1.015625 -0.734375 C 0.992188 -0.816406 0.960938 -0.898438 0.921875 -0.984375 C 0.890625 -1.066406 0.863281 -1.144531 0.84375 -1.21875 C 0.820312 -1.269531 0.800781 -1.316406 0.78125 -1.359375 C 0.769531 -1.398438 0.753906 -1.4375 0.734375 -1.46875 C 0.722656 -1.507812 0.71875 -1.539062 0.71875 -1.5625 C 0.695312 -1.53125 0.664062 -1.484375 0.625 -1.421875 C 0.582031 -1.359375 0.535156 -1.289062 0.484375 -1.21875 C 0.429688 -1.15625 0.378906 -1.09375 0.328125 -1.03125 C 0.285156 -0.96875 0.253906 -0.925781 0.234375 -0.90625 C 0.210938 -0.875 0.1875 -0.851562 0.15625 -0.84375 C 0.125 -0.84375 0.0976562 -0.847656 0.078125 -0.859375 C 0.0664062 -0.878906 0.0625 -0.90625 0.0625 -0.9375 C 0.0625 -0.96875 0.0703125 -1.003906 0.09375 -1.046875 C 0.113281 -1.078125 0.144531 -1.125 0.1875 -1.1875 C 0.238281 -1.25 0.285156 -1.3125 0.328125 -1.375 C 0.367188 -1.4375 0.40625 -1.492188 0.4375 -1.546875 C 0.476562 -1.597656 0.5 -1.628906 0.5 -1.640625 C 0.507812 -1.671875 0.5 -1.707031 0.46875 -1.75 C 0.4375 -1.800781 0.429688 -1.851562 0.453125 -1.90625 C 0.460938 -1.957031 0.492188 -2.015625 0.546875 -2.078125 C 0.597656 -2.148438 0.65625 -2.210938 0.71875 -2.265625 C 0.789062 -2.316406 0.859375 -2.351562 0.921875 -2.375 C 0.992188 -2.40625 1.0625 -2.40625 1.125 -2.375 C 1.164062 -2.34375 1.203125 -2.3125 1.234375 -2.28125 C 1.265625 -2.25 1.273438 -2.21875 1.265625 -2.1875 C 1.253906 -2.164062 1.242188 -2.140625 1.234375 -2.109375 C 1.222656 -2.078125 1.203125 -2.039062 1.171875 -2 C 1.140625 -1.96875 1.097656 -1.921875 1.046875 -1.859375 C 1.054688 -1.773438 1.070312 -1.695312 1.09375 -1.625 C 1.113281 -1.5625 1.132812 -1.503906 1.15625 -1.453125 C 1.175781 -1.390625 1.195312 -1.335938 1.21875 -1.296875 C 1.25 -1.234375 1.28125 -1.164062 1.3125 -1.09375 C 1.351562 -1.03125 1.382812 -0.960938 1.40625 -0.890625 C 1.4375 -0.828125 1.460938 -0.765625 1.484375 -0.703125 C 1.503906 -0.648438 1.507812 -0.609375 1.5 -0.578125 C 1.488281 -0.515625 1.457031 -0.441406 1.40625 -0.359375 C 1.351562 -0.273438 1.285156 -0.191406 1.203125 -0.109375 C 1.128906 -0.0234375 1.046875 0.0390625 0.953125 0.09375 C 0.859375 0.15625 0.757812 0.1875 0.65625 0.1875 C 0.582031 0.1875 0.507812 0.160156 0.4375 0.109375 C 0.363281 0.0664062 0.300781 0.015625 0.25 -0.046875 C 0.207031 -0.109375 0.175781 -0.171875 0.15625 -0.234375 C 0.132812 -0.296875 0.128906 -0.34375 0.140625 -0.375 C 0.171875 -0.414062 0.191406 -0.445312 0.203125 -0.46875 C 0.222656 -0.5 0.25 -0.53125 0.28125 -0.5625 C 0.300781 -0.570312 0.320312 -0.582031 0.34375 -0.59375 C 0.351562 -0.601562 0.375 -0.613281 0.40625 -0.625 C 0.4375 -0.632812 0.476562 -0.644531 0.53125 -0.65625 C 0.5625 -0.550781 0.585938 -0.46875 0.609375 -0.40625 C 0.640625 -0.34375 0.664062 -0.296875 0.6875 -0.265625 C 0.707031 -0.222656 0.726562 -0.195312 0.75 -0.1875 Z M 0.75 -0.1875 "/></g></g><g transform="translate(38.703056, 15.280735)"><g><path d="M 0.28125 -0.390625 C 0.363281 -0.378906 0.421875 -0.335938 0.453125 -0.265625 C 0.484375 -0.203125 0.488281 -0.125 0.46875 -0.03125 C 0.46875 0.0078125 0.457031 0.0546875 0.4375 0.109375 C 0.414062 0.171875 0.382812 0.234375 0.34375 0.296875 C 0.300781 0.359375 0.25 0.421875 0.1875 0.484375 C 0.132812 0.546875 0.0703125 0.597656 0 0.640625 C -0.03125 0.660156 -0.0546875 0.664062 -0.078125 0.65625 C -0.0976562 0.65625 -0.113281 0.644531 -0.125 0.625 C -0.132812 0.613281 -0.132812 0.597656 -0.125 0.578125 C -0.125 0.554688 -0.113281 0.539062 -0.09375 0.53125 C -0.0507812 0.488281 -0.0078125 0.429688 0.03125 0.359375 C 0.0703125 0.296875 0.101562 0.222656 0.125 0.140625 C 0.101562 0.140625 0.0820312 0.140625 0.0625 0.140625 C 0.0507812 0.148438 0.0351562 0.148438 0.015625 0.140625 C -0.0351562 0.140625 -0.078125 0.117188 -0.109375 0.078125 C -0.148438 0.0351562 -0.171875 -0.0195312 -0.171875 -0.09375 C -0.148438 -0.1875 -0.09375 -0.265625 0 -0.328125 C 0.0820312 -0.390625 0.175781 -0.410156 0.28125 -0.390625 Z M 0.28125 -0.390625 "/></g></g><g transform="translate(39.789267, 15.280735)"><g/></g><g transform="translate(41.309964, 15.280735)"><g><path d="M 0.875 -1.796875 C 0.695312 -1.796875 0.550781 -1.816406 0.4375 -1.859375 C 0.320312 -1.898438 0.25 -1.945312 0.21875 -2 C 0.195312 -2.03125 0.175781 -2.066406 0.15625 -2.109375 C 0.144531 -2.160156 0.15625 -2.21875 0.1875 -2.28125 C 0.226562 -2.238281 0.273438 -2.207031 0.328125 -2.1875 C 0.390625 -2.175781 0.445312 -2.164062 0.5 -2.15625 C 0.5625 -2.144531 0.617188 -2.140625 0.671875 -2.140625 C 0.785156 -2.140625 0.890625 -2.144531 0.984375 -2.15625 C 1.085938 -2.175781 1.1875 -2.203125 1.28125 -2.234375 C 1.320312 -2.453125 1.363281 -2.644531 1.40625 -2.8125 C 1.445312 -2.976562 1.492188 -3.113281 1.546875 -3.21875 C 1.609375 -3.34375 1.671875 -3.453125 1.734375 -3.546875 C 1.796875 -3.640625 1.863281 -3.71875 1.9375 -3.78125 C 2.007812 -3.84375 2.09375 -3.890625 2.1875 -3.921875 C 2.28125 -3.960938 2.382812 -3.984375 2.5 -3.984375 C 2.59375 -3.984375 2.664062 -3.960938 2.71875 -3.921875 C 2.769531 -3.890625 2.804688 -3.847656 2.828125 -3.796875 C 2.859375 -3.742188 2.875 -3.6875 2.875 -3.625 C 2.882812 -3.5625 2.890625 -3.503906 2.890625 -3.453125 C 2.890625 -3.335938 2.859375 -3.207031 2.796875 -3.0625 C 2.742188 -2.925781 2.664062 -2.789062 2.5625 -2.65625 C 2.457031 -2.53125 2.332031 -2.40625 2.1875 -2.28125 C 2.050781 -2.164062 1.894531 -2.066406 1.71875 -1.984375 C 1.65625 -1.753906 1.59375 -1.523438 1.53125 -1.296875 C 1.476562 -1.066406 1.421875 -0.878906 1.359375 -0.734375 C 1.316406 -0.597656 1.253906 -0.441406 1.171875 -0.265625 C 1.097656 -0.0976562 1.007812 0.0625 0.90625 0.21875 C 0.96875 0.257812 1.03125 0.300781 1.09375 0.34375 C 1.164062 0.394531 1.238281 0.4375 1.3125 0.46875 C 1.382812 0.507812 1.457031 0.539062 1.53125 0.5625 C 1.601562 0.59375 1.679688 0.609375 1.765625 0.609375 C 1.847656 0.597656 1.925781 0.582031 2 0.5625 C 2.070312 0.550781 2.144531 0.523438 2.21875 0.484375 C 2.300781 0.441406 2.378906 0.382812 2.453125 0.3125 C 2.472656 0.351562 2.476562 0.414062 2.46875 0.5 C 2.457031 0.582031 2.425781 0.664062 2.375 0.75 C 2.332031 0.832031 2.269531 0.90625 2.1875 0.96875 C 2.101562 1.03125 2 1.0625 1.875 1.0625 C 1.738281 1.0625 1.613281 1.039062 1.5 1 C 1.382812 0.96875 1.273438 0.925781 1.171875 0.875 C 1.066406 0.820312 0.96875 0.765625 0.875 0.703125 C 0.789062 0.640625 0.707031 0.582031 0.625 0.53125 C 0.519531 0.632812 0.40625 0.71875 0.28125 0.78125 C 0.15625 0.84375 0.015625 0.875 -0.140625 0.875 C -0.265625 0.875 -0.363281 0.835938 -0.4375 0.765625 C -0.507812 0.703125 -0.546875 0.613281 -0.546875 0.5 C -0.535156 0.457031 -0.519531 0.40625 -0.5 0.34375 C -0.476562 0.289062 -0.4375 0.234375 -0.375 0.171875 C -0.320312 0.117188 -0.242188 0.0703125 -0.140625 0.03125 C -0.0351562 0 0.09375 -0.015625 0.25 -0.015625 C 0.3125 -0.015625 0.367188 -0.0078125 0.421875 0 C 0.484375 0.0195312 0.539062 0.0351562 0.59375 0.046875 C 0.625 -0.015625 0.660156 -0.09375 0.703125 -0.1875 C 0.742188 -0.28125 0.785156 -0.382812 0.828125 -0.5 C 0.910156 -0.726562 0.984375 -0.953125 1.046875 -1.171875 C 1.109375 -1.398438 1.160156 -1.617188 1.203125 -1.828125 C 1.148438 -1.816406 1.09375 -1.804688 1.03125 -1.796875 C 0.976562 -1.796875 0.925781 -1.796875 0.875 -1.796875 Z M 0 0.59375 C 0.0390625 0.570312 0.09375 0.550781 0.15625 0.53125 C 0.21875 0.519531 0.285156 0.472656 0.359375 0.390625 C 0.304688 0.367188 0.265625 0.359375 0.234375 0.359375 C 0.109375 0.359375 0.0195312 0.375 -0.03125 0.40625 C -0.09375 0.445312 -0.125 0.488281 -0.125 0.53125 C -0.125 0.550781 -0.113281 0.566406 -0.09375 0.578125 C -0.0703125 0.597656 -0.0390625 0.601562 0 0.59375 Z M 2 -3.09375 C 1.976562 -3.039062 1.953125 -2.960938 1.921875 -2.859375 C 1.898438 -2.753906 1.875 -2.632812 1.84375 -2.5 C 2.03125 -2.625 2.179688 -2.765625 2.296875 -2.921875 C 2.410156 -3.085938 2.46875 -3.25 2.46875 -3.40625 C 2.46875 -3.5 2.4375 -3.546875 2.375 -3.546875 C 2.332031 -3.546875 2.269531 -3.503906 2.1875 -3.421875 C 2.113281 -3.347656 2.050781 -3.238281 2 -3.09375 Z M 2 -3.09375 "/></g></g><g transform="translate(43.980455, 15.280735)"><g><path d="M 1.140625 0.984375 C 0.960938 0.984375 0.800781 0.941406 0.65625 0.859375 C 0.507812 0.773438 0.382812 0.65625 0.28125 0.5 C 0.1875 0.351562 0.113281 0.179688 0.0625 -0.015625 C 0.0078125 -0.210938 -0.0078125 -0.425781 0 -0.65625 C 0.0078125 -0.863281 0.0351562 -1.085938 0.078125 -1.328125 C 0.128906 -1.578125 0.195312 -1.828125 0.28125 -2.078125 C 0.375 -2.328125 0.484375 -2.566406 0.609375 -2.796875 C 0.734375 -3.035156 0.875 -3.242188 1.03125 -3.421875 C 1.195312 -3.597656 1.378906 -3.738281 1.578125 -3.84375 C 1.773438 -3.945312 1.992188 -4 2.234375 -4 C 2.378906 -4 2.5 -3.96875 2.59375 -3.90625 C 2.695312 -3.851562 2.78125 -3.78125 2.84375 -3.6875 C 2.90625 -3.59375 2.945312 -3.484375 2.96875 -3.359375 C 2.988281 -3.242188 3 -3.125 3 -3 C 2.988281 -2.882812 2.96875 -2.769531 2.9375 -2.65625 C 2.914062 -2.550781 2.878906 -2.453125 2.828125 -2.359375 C 2.785156 -2.273438 2.726562 -2.207031 2.65625 -2.15625 C 2.59375 -2.101562 2.519531 -2.078125 2.4375 -2.078125 C 2.382812 -2.085938 2.34375 -2.101562 2.3125 -2.125 C 2.269531 -2.144531 2.226562 -2.175781 2.1875 -2.21875 C 2.15625 -2.257812 2.125 -2.320312 2.09375 -2.40625 C 2.1875 -2.445312 2.257812 -2.515625 2.3125 -2.609375 C 2.375 -2.703125 2.421875 -2.800781 2.453125 -2.90625 C 2.484375 -3.03125 2.503906 -3.164062 2.515625 -3.3125 C 2.515625 -3.457031 2.476562 -3.5625 2.40625 -3.625 C 2.34375 -3.695312 2.269531 -3.734375 2.1875 -3.734375 C 2.019531 -3.734375 1.84375 -3.644531 1.65625 -3.46875 C 1.476562 -3.300781 1.3125 -3.066406 1.15625 -2.765625 C 1 -2.472656 0.863281 -2.128906 0.75 -1.734375 C 0.644531 -1.347656 0.585938 -0.9375 0.578125 -0.5 C 0.566406 -0.300781 0.578125 -0.132812 0.609375 0 C 0.640625 0.144531 0.6875 0.257812 0.75 0.34375 C 0.8125 0.425781 0.878906 0.488281 0.953125 0.53125 C 1.035156 0.570312 1.117188 0.59375 1.203125 0.59375 C 1.316406 0.59375 1.425781 0.566406 1.53125 0.515625 C 1.644531 0.460938 1.75 0.394531 1.84375 0.3125 C 1.9375 0.238281 2.015625 0.160156 2.078125 0.078125 C 2.140625 -0.00390625 2.191406 -0.078125 2.234375 -0.140625 C 2.253906 -0.191406 2.273438 -0.222656 2.296875 -0.234375 C 2.328125 -0.242188 2.351562 -0.238281 2.375 -0.21875 C 2.40625 -0.207031 2.421875 -0.179688 2.421875 -0.140625 C 2.429688 -0.109375 2.425781 -0.0703125 2.40625 -0.03125 C 2.34375 0.09375 2.265625 0.210938 2.171875 0.328125 C 2.085938 0.453125 1.992188 0.5625 1.890625 0.65625 C 1.785156 0.757812 1.664062 0.835938 1.53125 0.890625 C 1.40625 0.953125 1.273438 0.984375 1.140625 0.984375 Z M 1.140625 0.984375 "/></g></g><g transform="translate(46.958264, 15.280735)"><g><path d="M 1.9375 -2.4375 C 1.9375 -2.445312 1.945312 -2.472656 1.96875 -2.515625 C 2 -2.554688 2.03125 -2.609375 2.0625 -2.671875 C 2.09375 -2.742188 2.117188 -2.816406 2.140625 -2.890625 C 2.171875 -2.972656 2.191406 -3.054688 2.203125 -3.140625 C 2.222656 -3.234375 2.222656 -3.320312 2.203125 -3.40625 C 2.191406 -3.5 2.15625 -3.585938 2.09375 -3.671875 C 2.0625 -3.710938 2.007812 -3.734375 1.9375 -3.734375 C 1.875 -3.742188 1.796875 -3.734375 1.703125 -3.703125 C 1.617188 -3.679688 1.53125 -3.644531 1.4375 -3.59375 C 1.34375 -3.539062 1.253906 -3.476562 1.171875 -3.40625 C 1.097656 -3.332031 1.035156 -3.25 0.984375 -3.15625 C 0.929688 -3.070312 0.898438 -2.984375 0.890625 -2.890625 C 0.878906 -2.816406 0.878906 -2.75 0.890625 -2.6875 C 0.910156 -2.625 0.929688 -2.566406 0.953125 -2.515625 C 0.972656 -2.460938 0.992188 -2.410156 1.015625 -2.359375 C 1.035156 -2.316406 1.054688 -2.273438 1.078125 -2.234375 C 1.109375 -2.191406 1.15625 -2.140625 1.21875 -2.078125 C 1.28125 -2.015625 1.34375 -1.945312 1.40625 -1.875 C 1.476562 -1.800781 1.550781 -1.710938 1.625 -1.609375 C 1.695312 -1.515625 1.757812 -1.40625 1.8125 -1.28125 C 1.863281 -1.164062 1.898438 -1.035156 1.921875 -0.890625 C 1.941406 -0.742188 1.941406 -0.578125 1.921875 -0.390625 C 1.878906 -0.128906 1.816406 0.0820312 1.734375 0.25 C 1.648438 0.425781 1.554688 0.566406 1.453125 0.671875 C 1.347656 0.785156 1.242188 0.863281 1.140625 0.90625 C 1.046875 0.957031 0.960938 0.988281 0.890625 1 C 0.835938 1.007812 0.773438 1.019531 0.703125 1.03125 C 0.628906 1.039062 0.550781 1.035156 0.46875 1.015625 C 0.394531 1.003906 0.316406 0.976562 0.234375 0.9375 C 0.148438 0.90625 0.078125 0.851562 0.015625 0.78125 C -0.0546875 0.6875 -0.113281 0.59375 -0.15625 0.5 C -0.195312 0.40625 -0.222656 0.300781 -0.234375 0.1875 C -0.253906 0.0703125 -0.25 -0.046875 -0.21875 -0.171875 C -0.1875 -0.203125 -0.15625 -0.226562 -0.125 -0.25 C -0.09375 -0.28125 -0.0625 -0.300781 -0.03125 -0.3125 C 0.0078125 -0.332031 0.046875 -0.351562 0.078125 -0.375 C 0.128906 -0.382812 0.175781 -0.394531 0.21875 -0.40625 C 0.257812 -0.414062 0.300781 -0.421875 0.34375 -0.421875 C 0.382812 -0.421875 0.425781 -0.414062 0.46875 -0.40625 C 0.414062 -0.34375 0.378906 -0.285156 0.359375 -0.234375 C 0.347656 -0.210938 0.335938 -0.191406 0.328125 -0.171875 C 0.316406 -0.0976562 0.3125 -0.015625 0.3125 0.078125 C 0.320312 0.171875 0.34375 0.257812 0.375 0.34375 C 0.40625 0.425781 0.453125 0.5 0.515625 0.5625 C 0.578125 0.625 0.660156 0.660156 0.765625 0.671875 C 1.023438 0.671875 1.242188 0.46875 1.421875 0.0625 C 1.484375 -0.0625 1.515625 -0.1875 1.515625 -0.3125 C 1.523438 -0.445312 1.507812 -0.570312 1.46875 -0.6875 C 1.4375 -0.8125 1.394531 -0.925781 1.34375 -1.03125 C 1.289062 -1.132812 1.234375 -1.222656 1.171875 -1.296875 C 1.117188 -1.367188 1.050781 -1.445312 0.96875 -1.53125 C 0.894531 -1.625 0.816406 -1.722656 0.734375 -1.828125 C 0.660156 -1.929688 0.59375 -2.039062 0.53125 -2.15625 C 0.46875 -2.28125 0.425781 -2.410156 0.40625 -2.546875 C 0.375 -2.742188 0.390625 -2.925781 0.453125 -3.09375 C 0.523438 -3.257812 0.613281 -3.40625 0.71875 -3.53125 C 0.832031 -3.65625 0.953125 -3.753906 1.078125 -3.828125 C 1.210938 -3.898438 1.332031 -3.945312 1.4375 -3.96875 C 2.007812 -4.082031 2.382812 -3.988281 2.5625 -3.6875 C 2.632812 -3.570312 2.671875 -3.445312 2.671875 -3.3125 C 2.679688 -3.1875 2.675781 -3.066406 2.65625 -2.953125 C 2.632812 -2.847656 2.601562 -2.753906 2.5625 -2.671875 C 2.53125 -2.597656 2.507812 -2.554688 2.5 -2.546875 C 2.476562 -2.523438 2.441406 -2.503906 2.390625 -2.484375 C 2.347656 -2.460938 2.28125 -2.441406 2.1875 -2.421875 C 2.15625 -2.410156 2.125 -2.40625 2.09375 -2.40625 C 2.070312 -2.40625 2.046875 -2.40625 2.015625 -2.40625 C 1.984375 -2.414062 1.957031 -2.425781 1.9375 -2.4375 Z M 1.9375 -2.4375 "/></g></g><g transform="translate(49.53338, 15.280735)"><g><path d="M 0.765625 1.015625 C 0.660156 1.015625 0.5625 0.96875 0.46875 0.875 C 0.382812 0.78125 0.316406 0.648438 0.265625 0.484375 C 0.210938 0.316406 0.171875 0.113281 0.140625 -0.125 C 0.117188 -0.375 0.125 -0.65625 0.15625 -0.96875 C 0.164062 -1.175781 0.191406 -1.390625 0.234375 -1.609375 C 0.273438 -1.828125 0.320312 -2.035156 0.375 -2.234375 C 0.425781 -2.441406 0.484375 -2.632812 0.546875 -2.8125 C 0.609375 -2.988281 0.664062 -3.144531 0.71875 -3.28125 C 0.769531 -3.425781 0.8125 -3.539062 0.84375 -3.625 C 0.875 -3.707031 0.894531 -3.757812 0.90625 -3.78125 C 0.914062 -3.789062 0.9375 -3.804688 0.96875 -3.828125 C 1 -3.847656 1.035156 -3.863281 1.078125 -3.875 C 1.117188 -3.894531 1.160156 -3.90625 1.203125 -3.90625 C 1.253906 -3.914062 1.300781 -3.921875 1.34375 -3.921875 C 1.375 -3.921875 1.40625 -3.921875 1.4375 -3.921875 C 1.46875 -3.921875 1.492188 -3.914062 1.515625 -3.90625 C 1.546875 -3.894531 1.570312 -3.882812 1.59375 -3.875 C 1.5625 -3.851562 1.523438 -3.816406 1.484375 -3.765625 C 1.441406 -3.710938 1.40625 -3.65625 1.375 -3.59375 C 1.34375 -3.53125 1.3125 -3.460938 1.28125 -3.390625 C 1.207031 -3.242188 1.128906 -3.0625 1.046875 -2.84375 C 0.972656 -2.632812 0.898438 -2.410156 0.828125 -2.171875 C 0.765625 -1.941406 0.707031 -1.703125 0.65625 -1.453125 C 0.601562 -1.203125 0.566406 -0.972656 0.546875 -0.765625 C 0.523438 -0.328125 0.539062 -0.00390625 0.59375 0.203125 C 0.65625 0.421875 0.742188 0.53125 0.859375 0.53125 C 0.910156 0.53125 0.960938 0.492188 1.015625 0.421875 C 1.078125 0.359375 1.140625 0.273438 1.203125 0.171875 C 1.265625 0.0664062 1.328125 -0.046875 1.390625 -0.171875 C 1.453125 -0.304688 1.507812 -0.441406 1.5625 -0.578125 C 1.59375 -0.648438 1.625 -0.738281 1.65625 -0.84375 C 1.695312 -0.945312 1.734375 -1.050781 1.765625 -1.15625 C 1.804688 -1.257812 1.84375 -1.363281 1.875 -1.46875 C 1.914062 -1.570312 1.945312 -1.664062 1.96875 -1.75 C 1.96875 -1.851562 1.96875 -1.960938 1.96875 -2.078125 C 1.976562 -2.203125 1.988281 -2.320312 2 -2.4375 C 2.007812 -2.5625 2.023438 -2.679688 2.046875 -2.796875 C 2.078125 -2.921875 2.109375 -3.035156 2.140625 -3.140625 C 2.210938 -3.328125 2.296875 -3.460938 2.390625 -3.546875 C 2.484375 -3.640625 2.566406 -3.691406 2.640625 -3.703125 C 2.691406 -3.703125 2.726562 -3.675781 2.75 -3.625 C 2.769531 -3.582031 2.773438 -3.53125 2.765625 -3.46875 C 2.765625 -3.375 2.75 -3.257812 2.71875 -3.125 C 2.695312 -3 2.664062 -2.863281 2.625 -2.71875 C 2.59375 -2.570312 2.554688 -2.421875 2.515625 -2.265625 C 2.472656 -2.117188 2.4375 -1.976562 2.40625 -1.84375 C 2.332031 -1.476562 2.289062 -1.144531 2.28125 -0.84375 C 2.269531 -0.550781 2.269531 -0.300781 2.28125 -0.09375 C 2.300781 0.113281 2.335938 0.273438 2.390625 0.390625 C 2.441406 0.503906 2.5 0.5625 2.5625 0.5625 C 2.632812 0.5625 2.710938 0.507812 2.796875 0.40625 C 2.890625 0.300781 2.976562 0.160156 3.0625 -0.015625 C 3.144531 -0.191406 3.226562 -0.390625 3.3125 -0.609375 C 3.394531 -0.835938 3.46875 -1.066406 3.53125 -1.296875 C 3.59375 -1.535156 3.644531 -1.765625 3.6875 -1.984375 C 3.726562 -2.210938 3.757812 -2.421875 3.78125 -2.609375 C 3.789062 -2.765625 3.796875 -2.914062 3.796875 -3.0625 C 3.796875 -3.1875 3.789062 -3.320312 3.78125 -3.46875 C 3.769531 -3.613281 3.75 -3.742188 3.71875 -3.859375 C 3.757812 -3.898438 3.820312 -3.929688 3.90625 -3.953125 C 3.9375 -3.960938 3.976562 -3.976562 4.03125 -4 C 4.0625 -4 4.09375 -4.003906 4.125 -4.015625 C 4.144531 -4.015625 4.171875 -4.015625 4.203125 -4.015625 C 4.234375 -4.015625 4.257812 -4.015625 4.28125 -4.015625 C 4.300781 -3.960938 4.316406 -3.894531 4.328125 -3.8125 C 4.335938 -3.738281 4.34375 -3.664062 4.34375 -3.59375 C 4.351562 -3.5 4.351562 -3.40625 4.34375 -3.3125 C 4.3125 -2.9375 4.257812 -2.566406 4.1875 -2.203125 C 4.125 -1.847656 4.039062 -1.507812 3.9375 -1.1875 C 3.84375 -0.863281 3.734375 -0.566406 3.609375 -0.296875 C 3.492188 -0.0234375 3.367188 0.207031 3.234375 0.40625 C 3.109375 0.601562 2.976562 0.753906 2.84375 0.859375 C 2.71875 0.972656 2.597656 1.03125 2.484375 1.03125 C 2.359375 1.03125 2.257812 0.976562 2.1875 0.875 C 2.113281 0.769531 2.054688 0.640625 2.015625 0.484375 C 1.972656 0.328125 1.945312 0.160156 1.9375 -0.015625 C 1.925781 -0.203125 1.925781 -0.375 1.9375 -0.53125 C 1.851562 -0.332031 1.765625 -0.140625 1.671875 0.046875 C 1.578125 0.234375 1.476562 0.394531 1.375 0.53125 C 1.28125 0.675781 1.179688 0.789062 1.078125 0.875 C 0.972656 0.96875 0.867188 1.015625 0.765625 1.015625 Z M 0.765625 1.015625 "/></g></g></g></svg>