<svg xmlns="http://www.w3.org/2000/svg" xmlns:xlink="http://www.w3.org/1999/xlink" width="1080" zoomAndPan="magnify" viewBox="0 0 810 809.999993" height="1080" preserveAspectRatio="xMidYMid meet" version="1.0"><defs><g/><clipPath id="f86fa8afe6"><path d="M 291.160156 1 L 565 1 L 565 808 L 291.160156 808 Z M 291.160156 1 " clip-rule="nonzero"/></clipPath></defs><rect x="-81" width="972" fill="#ffffff" y="-80.999999" height="971.999992" fill-opacity="1"/><rect x="-81" width="972" fill="#ffffff" y="-80.999999" height="971.999992" fill-opacity="1"/><g clip-path="url(#f86fa8afe6)"><path fill="#010101" d="M 323.417969 214.96875 C 370.96875 222.078125 420.425781 209.25 455.652344 175.617188 C 471.445312 160.535156 485.328125 142.675781 497.996094 124.996094 C 510.839844 106.964844 522.8125 87.894531 531.488281 67.4375 C 537.5625 53.394531 544.851562 34.5 538.605469 19.242188 C 532.53125 4.160156 512.226562 0 497.648438 2.601562 C 484.460938 4.855469 473.007812 14.042969 462.246094 21.324219 C 454.4375 26.523438 446.109375 31.726562 439.515625 38.3125 C 436.5625 41.261719 434.308594 45.421875 429.796875 45.941406 C 428.234375 46.113281 426.847656 45.421875 425.285156 45.421875 C 425.109375 45.246094 424.9375 45.246094 424.765625 45.074219 C 424.242188 44.554688 423.894531 44.726562 423.894531 45.769531 C 424.417969 45.421875 424.765625 45.074219 425.285156 44.726562 C 428.0625 42.992188 431.359375 42.992188 434.308594 44.035156 C 437.257812 45.074219 444.894531 49.753906 442.636719 53.742188 C 440.902344 56.691406 434.65625 58.078125 431.53125 58.597656 C 426.671875 59.289062 421.640625 58.421875 416.953125 57.382812 C 410.011719 55.824219 403.070312 54.089844 396.304688 52.355469 C 389.363281 50.449219 381.726562 48.367188 377.734375 42.300781 C 374.265625 36.753906 371.835938 29.125 379.125 26.179688 C 385.199219 23.75 392.660156 24.097656 399.082031 24.617188 C 418.34375 26.003906 437.257812 31.207031 455.828125 36.40625 C 464.15625 38.832031 472.488281 41.261719 480.816406 43.859375 C 484.460938 44.902344 488.277344 45.941406 491.574219 47.5 C 497.476562 50.449219 498.34375 55.476562 495.394531 61.023438 C 488.105469 74.894531 470.058594 76.800781 455.828125 77.667969 C 432.574219 78.878906 406.195312 80.960938 385.023438 69.519531 C 377.734375 65.53125 370.96875 60.503906 364.027344 55.824219 C 355.347656 49.929688 346.5 43.859375 337.472656 38.3125 C 329.839844 33.632812 321.507812 28.257812 312.136719 31.550781 C 307.800781 33.113281 302.941406 36.40625 301.898438 41.433594 C 301.378906 44.378906 302.765625 46.808594 304.503906 49.0625 C 307.453125 52.875 311.097656 56.167969 314.566406 59.464844 C 319.253906 63.796875 323.9375 68.304688 328.796875 72.464844 C 335.390625 78.1875 342.332031 77.667969 350.488281 77.667969 C 356.390625 77.667969 362.8125 78.535156 368.539062 80.09375 C 371.3125 80.960938 373.570312 82.175781 375.132812 83.734375 C 381.726562 89.976562 386.238281 98.296875 392.660156 104.539062 C 399.601562 111.472656 409.667969 107.136719 417.996094 106.097656 C 427.191406 104.882812 437.433594 105.578125 445.242188 110.777344 C 452.703125 115.804688 456.695312 124.820312 456.867188 133.664062 C 457.042969 137.304688 456.695312 144.0625 454.089844 147.011719 C 453.050781 148.050781 453.917969 147.878906 452.703125 147.53125 C 451.660156 147.183594 450.445312 145.449219 449.925781 144.410156 C 448.191406 141.8125 447.148438 138.863281 447.324219 135.570312 C 447.496094 124.820312 457.214844 115.285156 464.503906 108.523438 C 472.140625 101.242188 480.296875 93.789062 489.492188 88.589844 C 499.210938 83.039062 511.011719 80.441406 522.292969 81.308594 C 536 82.347656 547.800781 90.667969 553.875 102.804688 C 565.675781 126.035156 547.28125 148.226562 531.316406 163.652344 C 522.984375 171.800781 514.136719 179.605469 505.113281 187.058594 C 495.742188 194.859375 485.847656 202.140625 474.914062 207.339844 C 451.660156 218.4375 424.9375 218.261719 401.335938 207.863281 C 377.214844 197.113281 356.738281 179.082031 336.605469 162.441406 C 327.582031 154.984375 318.734375 147.53125 310.921875 138.863281 C 305.023438 132.277344 297.386719 122.914062 298.429688 113.378906 C 299.46875 104.882812 308.320312 100.03125 315.78125 97.601562 C 325.328125 94.65625 335.21875 96.214844 344.070312 100.203125 C 353.441406 104.539062 361.769531 111.125 369.230469 118.234375 C 377.386719 126.035156 385.023438 134.53125 391.097656 144.0625 C 403.417969 163.308594 409.667969 185.496094 415.046875 207.339844 C 425.109375 249.121094 429.449219 292.808594 426.847656 335.804688 C 425.980469 351.234375 423.550781 366.488281 420.945312 381.746094 C 416.953125 404.453125 411.75 426.820312 404.808594 448.664062 C 394.914062 479.867188 380.683594 509.164062 369.925781 540.023438 C 359.6875 569.148438 355.871094 599.3125 358.644531 630 C 362.289062 669.007812 375.652344 706.277344 394.914062 740.085938 C 408.453125 763.835938 424.765625 785.851562 442.636719 806.65625 C 445.589844 810.125 450.621094 805.09375 447.671875 801.628906 C 413.832031 762.273438 385.199219 717.027344 372.183594 666.230469 C 363.851562 633.640625 361.941406 598.96875 369.753906 566.203125 C 377.042969 534.824219 391.964844 505.699219 403.246094 475.707031 C 419.035156 433.234375 429.277344 388.503906 433.789062 343.429688 C 437.433594 306.503906 434.308594 268.191406 427.714844 231.785156 C 423.203125 206.476562 417.476562 180.296875 406.542969 156.894531 C 396.996094 136.089844 381.726562 117.714844 363.679688 103.671875 C 347.191406 91.015625 326.890625 83.734375 307.105469 93.269531 C 298.601562 97.429688 291.3125 105.058594 291.488281 114.9375 C 291.660156 125.339844 298.429688 134.703125 305.023438 142.15625 C 313.003906 151.34375 322.375 159.320312 331.746094 167.121094 C 342.679688 176.136719 353.613281 185.152344 365.066406 193.644531 C 385.890625 209.074219 409.492188 222.078125 436.042969 222.597656 C 463.289062 223.117188 486.890625 210.980469 507.539062 194.164062 C 517.085938 186.363281 526.28125 178.214844 535.308594 169.722656 C 544.15625 161.226562 553.007812 151.867188 558.734375 140.945312 C 564.113281 130.714844 566.71875 119.101562 563.59375 107.65625 C 560.121094 95.175781 550.925781 83.90625 539.296875 78.359375 C 528.539062 73.160156 516.910156 73.160156 505.457031 75.238281 C 492.617188 77.492188 481.859375 84.082031 472.140625 92.230469 C 457.734375 104.191406 430.835938 125.859375 443.851562 147.183594 C 446.28125 151.171875 450.792969 156.027344 455.828125 154.292969 C 460.511719 152.730469 462.421875 146.839844 463.460938 142.503906 C 465.199219 134.355469 464.332031 125.859375 461.03125 118.234375 C 456 106.964844 445.589844 100.375 433.613281 98.644531 C 429.101562 97.949219 424.417969 97.949219 419.90625 98.296875 C 414.699219 98.816406 409.667969 100.550781 404.460938 100.898438 C 399.949219 101.242188 398.558594 99.683594 396.128906 96.734375 C 392.140625 91.882812 388.320312 87.027344 384.328125 82.347656 C 379.644531 76.800781 374.785156 73.332031 367.324219 71.945312 C 361.074219 70.730469 354.828125 69.863281 348.582031 70.039062 C 344.761719 70.210938 340.425781 70.730469 336.78125 68.824219 C 332.617188 66.570312 329.144531 62.410156 325.847656 59.289062 C 321.335938 55.128906 316.476562 50.96875 312.3125 46.289062 C 309.535156 43.167969 308.320312 41.953125 312.136719 39.351562 C 316.996094 36.058594 321.855469 37.097656 326.714844 39.699219 C 335.914062 44.554688 344.589844 50.449219 353.09375 56.34375 C 360.902344 61.542969 368.539062 67.089844 376.347656 72.117188 C 385.542969 78.011719 395.957031 82 406.714844 83.5625 C 419.382812 85.46875 432.398438 85.292969 445.242188 84.949219 C 457.5625 84.601562 470.402344 84.253906 482.203125 80.265625 C 487.929688 78.359375 493.484375 75.414062 497.476562 70.730469 C 503.550781 63.796875 508.234375 52.875 500.945312 45.074219 C 495.21875 39.007812 485.15625 37.273438 477.34375 34.847656 C 467.972656 31.898438 458.429688 29.125 448.886719 26.699219 C 430.144531 21.671875 410.1875 16.46875 390.75 16.988281 C 384.503906 17.164062 377.214844 17.855469 372.183594 22.015625 C 365.066406 27.910156 367.324219 37.964844 371.488281 44.902344 C 375.652344 51.835938 381.898438 54.957031 389.535156 57.382812 C 395.957031 59.464844 402.550781 61.023438 409.144531 62.582031 C 415.046875 63.972656 421.121094 65.53125 427.367188 65.703125 C 435.003906 65.878906 448.191406 63.105469 450.273438 54.4375 C 452.703125 44.207031 438.648438 35.539062 429.96875 36.058594 C 425.109375 36.234375 417.824219 39.179688 417.300781 44.726562 C 416.78125 50.273438 423.722656 52.875 428.0625 53.050781 C 437.777344 53.742188 442.464844 44.726562 449.058594 39.351562 C 459.125 31.207031 470.402344 23.925781 481.511719 16.988281 C 490.359375 11.617188 499.210938 8.148438 509.625 9.1875 C 517.953125 10.054688 528.191406 12.828125 532.007812 21.148438 C 535.132812 28.085938 533.917969 36.578125 532.183594 43.6875 C 527.152344 65.53125 515.351562 85.816406 503.375 104.363281 C 490.882812 123.78125 476.652344 142.503906 461.207031 159.667969 C 442.464844 180.46875 419.730469 195.898438 392.484375 203.699219 C 370.792969 209.941406 347.714844 211.15625 325.5 207.863281 C 320.988281 207.339844 318.90625 214.277344 323.417969 214.96875 Z M 323.417969 214.96875 " fill-opacity="1" fill-rule="nonzero"/></g><g fill="#000000" fill-opacity="1"><g transform="translate(281.52947, 496.031841)"><g><path d="M 11.1875 37.859375 C 7.539062 37.648438 4.003906 36.71875 0.578125 35.0625 C -2.847656 33.414062 -5.863281 31.191406 -8.46875 28.390625 C -11.082031 25.597656 -13.085938 22.238281 -14.484375 18.3125 C -15.890625 14.394531 -16.320312 9.992188 -15.78125 5.109375 C -14.894531 -3.390625 -12.734375 -11.191406 -9.296875 -18.296875 C -5.859375 -25.398438 -1.984375 -31.46875 2.328125 -36.5 C 6.648438 -41.539062 10.972656 -45.410156 15.296875 -48.109375 C 19.617188 -50.816406 23.15625 -52.085938 25.90625 -51.921875 C 27.664062 -51.816406 29.226562 -51.125 30.59375 -49.84375 C 31.96875 -48.570312 33.007812 -47.003906 33.71875 -45.140625 C 34.425781 -43.273438 34.8125 -41.238281 34.875 -39.03125 C 34.9375 -36.820312 34.523438 -34.734375 33.640625 -32.765625 C 32.441406 -33.722656 30.101562 -33.546875 26.625 -32.234375 C 23.15625 -30.921875 19.492188 -28.582031 15.640625 -25.21875 C 11.796875 -21.863281 8.273438 -17.632812 5.078125 -12.53125 C 1.878906 -7.4375 -0.09375 -1.640625 -0.84375 4.859375 C -1.351562 9.109375 -1.351562 12.757812 -0.84375 15.8125 C -0.332031 18.863281 0.523438 21.367188 1.734375 23.328125 C 2.941406 25.285156 4.367188 26.753906 6.015625 27.734375 C 7.660156 28.710938 9.425781 29.257812 11.3125 29.375 C 15.820312 29.632812 20.054688 28.179688 24.015625 25.015625 C 27.984375 21.859375 31.710938 17.328125 35.203125 11.421875 C 38.691406 5.515625 42.066406 -1.585938 45.328125 -9.890625 C 48.597656 -18.191406 51.789062 -27.410156 54.90625 -37.546875 C 55.84375 -40.648438 57.039062 -44.484375 58.5 -49.046875 C 59.96875 -53.617188 61.550781 -58.597656 63.25 -63.984375 C 64.957031 -69.367188 66.765625 -74.929688 68.671875 -80.671875 C 70.585938 -86.410156 72.390625 -91.90625 74.078125 -97.15625 C 75.773438 -102.40625 77.382812 -107.28125 78.90625 -111.78125 C 80.4375 -116.28125 81.660156 -119.957031 82.578125 -122.8125 C 78.429688 -123.050781 74.28125 -123.046875 70.125 -122.796875 C 66.582031 -122.617188 62.910156 -122.296875 59.109375 -121.828125 C 55.304688 -121.359375 52.113281 -120.628906 49.53125 -119.640625 C 49.289062 -119.785156 49.125 -120.144531 49.03125 -120.71875 C 48.9375 -121.289062 48.847656 -121.894531 48.765625 -122.53125 C 48.679688 -123.289062 48.597656 -124.113281 48.515625 -125 C 48.453125 -126.007812 48.507812 -127.007812 48.6875 -128 C 48.875 -128.875 49.0625 -129.84375 49.25 -130.90625 C 49.445312 -131.96875 49.765625 -133.050781 50.203125 -134.15625 C 53.535156 -134.976562 57.378906 -135.539062 61.734375 -135.84375 C 66.085938 -136.144531 70.15625 -136.304688 73.9375 -136.328125 C 78.363281 -136.460938 82.894531 -136.390625 87.53125 -136.109375 C 90.925781 -135.910156 94.425781 -135.515625 98.03125 -134.921875 C 101.144531 -134.484375 104.628906 -133.898438 108.484375 -133.171875 C 112.347656 -132.453125 116.207031 -131.472656 120.0625 -130.234375 C 120.875 -129.304688 121.367188 -128.269531 121.546875 -127.125 C 121.640625 -126.613281 121.671875 -126.046875 121.640625 -125.421875 C 121.578125 -124.410156 121.332031 -123.484375 120.90625 -122.640625 C 120.613281 -121.890625 120.160156 -121.125 119.546875 -120.34375 C 118.941406 -119.5625 118.1875 -118.945312 117.28125 -118.5 C 115.914062 -118.957031 114.203125 -119.335938 112.140625 -119.640625 C 110.085938 -119.953125 108.066406 -120.296875 106.078125 -120.671875 C 103.828125 -121.054688 101.453125 -121.382812 98.953125 -121.65625 L 73.765625 -34 C 73.140625 -31.882812 72.066406 -28.578125 70.546875 -24.078125 C 69.023438 -19.578125 67 -14.597656 64.46875 -9.140625 C 61.9375 -3.679688 58.957031 1.90625 55.53125 7.625 C 52.113281 13.34375 48.195312 18.492188 43.78125 23.078125 C 39.363281 27.660156 34.421875 31.363281 28.953125 34.1875 C 23.492188 37.019531 17.570312 38.242188 11.1875 37.859375 Z M 11.1875 37.859375 "/></g></g><g transform="translate(378.081654, 501.717911)"><g/></g><g transform="translate(432.098179, 504.899006)"><g><path d="M 74.15625 -82.3125 C 74.050781 -82.695312 74.484375 -83.648438 75.453125 -85.171875 C 76.421875 -86.691406 77.507812 -88.578125 78.71875 -90.828125 C 79.925781 -93.085938 81.144531 -95.660156 82.375 -98.546875 C 83.613281 -101.429688 84.546875 -104.425781 85.171875 -107.53125 C 85.796875 -110.644531 85.945312 -113.785156 85.625 -116.953125 C 85.3125 -120.128906 84.175781 -123.21875 82.21875 -126.21875 C 81.0625 -127.800781 79.265625 -128.757812 76.828125 -129.09375 C 74.390625 -129.425781 71.601562 -129.210938 68.46875 -128.453125 C 65.34375 -127.691406 62.054688 -126.4375 58.609375 -124.6875 C 55.171875 -122.9375 51.992188 -120.851562 49.078125 -118.4375 C 46.171875 -116.03125 43.648438 -113.316406 41.515625 -110.296875 C 39.390625 -107.273438 38.101562 -104.144531 37.65625 -100.90625 C 37.257812 -98.28125 37.210938 -95.820312 37.515625 -93.53125 C 37.816406 -91.25 38.289062 -89.144531 38.9375 -87.21875 C 39.582031 -85.289062 40.296875 -83.488281 41.078125 -81.8125 C 41.859375 -80.132812 42.59375 -78.644531 43.28125 -77.34375 C 44.175781 -75.519531 45.625 -73.476562 47.625 -71.21875 C 49.632812 -68.96875 51.8125 -66.414062 54.15625 -63.5625 C 56.507812 -60.71875 58.84375 -57.523438 61.15625 -53.984375 C 63.46875 -50.453125 65.441406 -46.5 67.078125 -42.125 C 68.710938 -37.757812 69.75 -32.914062 70.1875 -27.59375 C 70.625 -22.269531 70.210938 -16.4375 68.953125 -10.09375 C 67.035156 -0.894531 64.382812 6.71875 61 12.75 C 57.625 18.789062 54.035156 23.582031 50.234375 27.125 C 46.441406 30.675781 42.675781 33.191406 38.9375 34.671875 C 35.195312 36.148438 32.117188 37.078125 29.703125 37.453125 C 27.804688 37.710938 25.5625 37.921875 22.96875 38.078125 C 20.382812 38.242188 17.691406 38.023438 14.890625 37.421875 C 12.097656 36.816406 9.296875 35.769531 6.484375 34.28125 C 3.671875 32.789062 1.21875 30.601562 -0.875 27.71875 C -3.332031 24.414062 -5.203125 20.898438 -6.484375 17.171875 C -7.679688 13.972656 -8.503906 10.3125 -8.953125 6.1875 C -9.398438 2.0625 -8.804688 -2.148438 -7.171875 -6.453125 C -6.097656 -7.535156 -4.972656 -8.484375 -3.796875 -9.296875 C -2.617188 -10.109375 -1.441406 -10.796875 -0.265625 -11.359375 C 1.023438 -12.023438 2.378906 -12.640625 3.796875 -13.203125 C 5.453125 -13.585938 7.109375 -13.921875 8.765625 -14.203125 C 10.171875 -14.367188 11.65625 -14.4375 13.21875 -14.40625 C 14.78125 -14.382812 16.242188 -14.082031 17.609375 -13.5 C 15.597656 -11.488281 14.164062 -9.5625 13.3125 -7.71875 C 12.738281 -6.738281 12.304688 -5.878906 12.015625 -5.140625 C 11.378906 -2.796875 11.054688 0.0390625 11.046875 3.375 C 11.035156 6.71875 11.53125 9.960938 12.53125 13.109375 C 13.539062 16.253906 15.113281 18.988281 17.25 21.3125 C 19.382812 23.632812 22.332031 24.972656 26.09375 25.328125 C 35.226562 26.117188 43.421875 19.425781 50.671875 5.25 C 53.078125 0.863281 54.445312 -3.648438 54.78125 -8.296875 C 55.125 -12.941406 54.820312 -17.429688 53.875 -21.765625 C 52.9375 -26.097656 51.601562 -30.171875 49.875 -33.984375 C 48.15625 -37.796875 46.363281 -41.082031 44.5 -43.84375 C 42.65625 -46.59375 40.410156 -49.585938 37.765625 -52.828125 C 35.128906 -56.066406 32.535156 -59.585938 29.984375 -63.390625 C 27.441406 -67.191406 25.191406 -71.289062 23.234375 -75.6875 C 21.285156 -80.082031 20.085938 -84.8125 19.640625 -89.875 C 19.066406 -96.96875 20.109375 -103.363281 22.765625 -109.0625 C 25.429688 -114.757812 28.863281 -119.6875 33.0625 -123.84375 C 37.269531 -128 41.804688 -131.316406 46.671875 -133.796875 C 51.546875 -136.273438 55.828125 -137.785156 59.515625 -138.328125 C 79.953125 -141.160156 92.988281 -136.988281 98.625 -125.8125 C 101.007812 -121.53125 102.191406 -117.0625 102.171875 -112.40625 C 102.148438 -107.75 101.617188 -103.46875 100.578125 -99.5625 C 99.535156 -95.65625 98.335938 -92.382812 96.984375 -89.75 C 95.628906 -87.125 94.753906 -85.703125 94.359375 -85.484375 C 93.566406 -84.773438 92.328125 -84.023438 90.640625 -83.234375 C 88.960938 -82.453125 86.273438 -81.789062 82.578125 -81.25 C 81.578125 -81.050781 80.570312 -80.984375 79.5625 -81.046875 C 78.6875 -81.097656 77.75 -81.210938 76.75 -81.390625 C 75.75 -81.578125 74.882812 -81.882812 74.15625 -82.3125 Z M 74.15625 -82.3125 "/></g></g></g></svg>